<?xml version="1.0" encoding="UTF-8"?>
<svg width="355px" height="220px" viewBox="0 0 355 220" version="1.1" xmlns="http://www.w3.org/2000/svg" xmlns:xlink="http://www.w3.org/1999/xlink">
    <!-- Generator: Sketch 52.3 (67297) - http://www.bohemiancoding.com/sketch -->
    <title>分组 3</title>
    <desc>Created with Sketch.</desc>
    <defs>
        <linearGradient x1="50%" y1="0%" x2="50%" y2="100%" id="linearGradient-1">
            <stop stop-color="#FFFFFF" offset="0%"></stop>
            <stop stop-color="#FFFFFF" offset="50.7891681%"></stop>
            <stop stop-color="#CCE5D9" offset="100%"></stop>
        </linearGradient>
    </defs>
    <g id="页面设计-" stroke="none" stroke-width="1" fill="none" fill-rule="evenodd">
        <g id="码上参与-实名认证" transform="translate(-10.000000, -98.000000)">
            <g id="编组-5" transform="translate(10.000000, 98.000000)">
                <g id="分组-3">
                    <path d="M4,0 L351,0 C353.209139,-4.05812251e-16 355,1.790861 355,4 L355,220 L0,220 L0,4 C-2.705415e-16,1.790861 1.790861,4.05812251e-16 4,0 Z" id="矩形" fill="url(#linearGradient-1)" fill-rule="nonzero" opacity="0.25"></path>
                    <g id="编组-3" transform="translate(37.000000, 34.000000)">
                        <path d="M56.4047408,154.469994 C16.3479431,154.469994 -1.13686838e-13,123.325301 -1.13686838e-13,88.6608816 C-1.13686838e-13,53.9964624 16.0734281,32.6536236 36.7955017,32.6536236 C57.5175753,32.6536236 51.6312291,53.3830721 75.877199,53.3830721 C100.123169,53.3830721 113.253662,4.40859425 147.974574,4.40859425 C182.695485,4.40859425 156.299147,50.5691974 187.022433,50.5691974 C217.745719,50.5691974 252.238821,38.9548154 252.238821,86.3412461 C252.238821,133.727677 314.063328,155.968439 267.851388,155.968439 C221.639448,155.968439 56.4047408,154.469994 56.4047408,154.469994 Z" id="bg" fill="#F3F9FF" fill-rule="nonzero"></path>
                        <g id="puzzle" transform="translate(106.755853, 27.643077)" fill-rule="nonzero">
                            <path d="M62.576087,105.066095 C61.5094816,104.517523 60.2260284,104.612367 59.2509281,105.310593 C56.472893,107.301371 53.1591722,109.284047 50.9835452,109.284047 C45.0952926,109.284047 40.3222575,103.317432 40.3222575,95.9567476 C40.3222575,88.5960633 45.0952926,82.629448 50.9835452,82.629448 C53.1591722,82.629448 56.472893,84.6121239 59.2509281,86.6029021 C60.2255518,87.3006515 61.5085284,87.3935895 62.5746572,86.8454939 C63.6403094,86.2973984 64.310393,85.199301 64.310393,84.0011166 L64.310393,63.9708473 L44.2808027,63.9708473 C43.0826589,63.9708473 41.9845987,63.300741 41.4365217,62.2350527 C40.8884448,61.1688878 40.9813796,59.8853911 41.6791054,58.9112109 C43.6698161,56.1326051 45.6524247,52.8192486 45.6524247,50.6435478 C45.6524247,44.7550956 39.6860117,39.9818987 32.3255769,39.9818987 C24.9651421,39.9818987 18.9987291,44.7550956 18.9987291,50.6435478 C18.9987291,52.8192486 20.9813378,56.1330817 22.9720485,58.9112109 C23.6707274,59.8858677 23.765092,61.169841 23.2165385,62.2364825 C22.6679849,63.303124 21.5694482,63.9708473 20.3703512,63.9708473 L0.34076087,63.9708473 L0.34076087,117.280046 C0.34076087,123.168498 5.11427258,127.941695 11.0020485,127.941695 L64.3094398,127.941695 L64.3094398,107.911425 C64.310393,106.713241 63.6426923,105.61419 62.576087,105.066095 Z" id="Path" fill="#1B90FB"></path>
                            <path d="M66.0442224,22.876553 C67.1108278,23.4251251 68.3942809,23.3302808 69.3693813,22.6320548 C72.1474164,20.6412766 75.4611371,18.6586007 77.6367642,18.6586007 C83.5250167,18.6586007 88.2980518,24.625216 88.2980518,31.9859003 C88.2980518,39.3465846 83.5250167,45.3131999 77.6367642,45.3131999 C75.4611371,45.3131999 72.1474164,43.3305239 69.3693813,41.3397458 C68.3947575,40.6419964 67.1117809,40.5490584 66.0456522,41.0971539 C64.98,41.6452494 64.3099164,42.7433469 64.3099164,43.9415313 L64.3099164,63.9718005 L84.3395067,63.9718005 C85.5376505,63.9718005 86.6357107,64.6419069 87.1837876,65.7075952 C87.7318645,66.7732835 87.6389298,68.0572568 86.941204,69.0314369 C84.9504933,71.8095662 82.9678846,75.1233993 82.9678846,77.2991001 C82.9678846,83.1875522 88.9342977,87.9607491 96.2947324,87.9607491 C103.655167,87.9607491 109.62158,83.1875522 109.62158,77.2991001 C109.62158,75.1233993 107.638972,71.8095662 105.648261,69.0314369 C104.949582,68.0567801 104.855217,66.7728069 105.403771,65.7061654 C105.952324,64.6395238 107.050861,63.9718005 108.249958,63.9718005 L128.279548,63.9718005 L128.279548,10.661649 C128.279548,4.77319691 123.506037,0 117.618261,0 L64.3099164,0 L64.310393,20.0302693 C64.310393,21.2294069 64.9780936,22.3279809 66.0442224,22.876553 Z" id="Path" fill="#2CCD7F"></path>
                            <path d="M105.403771,65.7052121 C104.855217,66.7718537 104.950059,68.0553503 105.648261,69.0304837 C107.638972,71.808613 109.62158,75.1224461 109.62158,77.2981469 C109.62158,83.186599 103.655167,87.9597959 96.2947324,87.9597959 C88.9342977,87.9597959 82.9678846,83.186599 82.9678846,77.2981469 C82.9678846,75.1224461 84.9504933,71.808613 86.941204,69.0304837 C87.6389298,68.0558269 87.7318645,66.7728069 87.1837876,65.706642 C86.6357107,64.6409537 85.5376505,63.9708473 84.3395067,63.9708473 L64.3099164,63.9708473 L64.3099164,84.0011166 C64.3099164,85.199301 63.6398328,86.2973984 62.5741806,86.8454939 C61.5080518,87.3935895 60.2245987,87.3006515 59.2504515,86.6029021 C56.4724164,84.6121239 53.1586957,82.629448 50.9830686,82.629448 C45.0948161,82.629448 40.3217809,88.5960633 40.3217809,95.9567476 C40.3217809,103.317432 45.0948161,109.284047 50.9830686,109.284047 C53.1586957,109.284047 56.4724164,107.301371 59.2504515,105.310593 C60.2250753,104.61189 61.509005,104.517523 62.5756104,105.066095 C63.6422157,105.614667 64.3099164,106.713241 64.3099164,107.912379 L64.3099164,127.942648 L117.617308,127.942648 C123.50556,127.942648 128.278595,123.168974 128.278595,117.280999 L128.278595,63.9708473 L108.249005,63.9713239 C107.050385,63.9713239 105.951848,64.6390472 105.403771,65.7052121 Z" id="Path" fill="#224380"></path>
                        </g>
                        <g id="paperplane" transform="translate(55.284281, 0.000000)" fill-rule="nonzero">
                            <polygon id="Path" fill="#9E95E3" points="40.3742057 8.79002203 30.3062709 13.8243984 0.101036789 0.399394809"></polygon>
                            <polygon id="Path" fill="#877CD8" points="28.6282023 22.2150256 30.3062709 13.8243984 0.101036789 0.399394809"></polygon>
                            <polygon id="Path" fill="#7266D5" points="28.6282023 22.2150256 25.2720652 15.5025238 16.8817224 13.8243984"></polygon>
                            <polygon id="Path" fill="#9E95E3" points="25.2720652 15.5025238 16.8817224 18.8587747 0.101036789 0.399394809"></polygon>
                        </g>
                        <g id="plant" transform="translate(229.715719, 84.835652)" fill-rule="nonzero">
                            <path d="M30.4015886,36.8382136 C36.0310535,43.5449961 45.9636371,34.6019839 45.9636371,34.6019839 C45.9636371,34.6019839 41.8902341,34.1949634 40.9637458,32.796605 C40.9637458,32.796605 47.4124666,32.8776278 49.1820401,29.0724152 C49.1820401,29.0724152 46.3239381,29.2573379 44.9351589,28.2741022 C44.9351589,28.2741022 49.1910953,27.1626599 49.0238127,24.7815424 C48.8565301,22.4004249 47.6798328,20.6932265 45.4341472,20.2185282 C45.4341472,20.2185282 44.7154515,22.3141594 42.4402174,23.1934952 C42.4402174,23.1934952 41.8049247,21.0683145 42.9706605,20.3090831 C42.9706605,20.3090831 38.1385284,18.7362873 35.5735284,24.7195837 C35.5735284,24.7195837 35.1736706,23.7206201 36.1025418,20.3186152 C36.1020652,20.3186152 22.571714,27.5096281 30.4015886,36.8382136 Z" id="Path" fill="#FFE994"></path>
                            <path d="M12.8345318,36.398784 C16.4380184,39.9528258 14.1613545,47.9826632 2.15370401,48.0355664 C2.15370401,48.0355664 0.404147157,43.4234619 4.14155518,42.2171752 C4.14155518,42.2171752 2.92577759,41.0904815 1.74431438,41.5675629 C1.74431438,41.5675629 1.35827759,38.4662955 5.57275084,38.7045979 C5.57275084,38.7045979 4.4594398,36.9549818 3.42571906,36.9549818 C3.42619565,36.9554584 8.88361204,32.5020633 12.8345318,36.398784 Z" id="Path" fill="#FFE994"></path>
                            <path d="M19.3337709,30.5570391 C26.2366806,27.0301637 25.3912124,19.8577383 25.3912124,19.8577383 L22.6103177,21.9252499 C22.6103177,21.9252499 25.3988378,17.7902268 22.8414632,13.9730991 C22.8414632,13.9730991 21.6361706,16.756471 20.2840886,16.9947734 C20.2840886,16.9947734 22.1132358,9.44011096 18.3758278,6.10006463 C18.3758278,6.10006463 15.5129599,9.99678535 14.3205351,10.6330527 C14.3205351,10.6330527 17.5808779,2.36252991 12.1735033,0.931285748 C6.76612876,-0.499958419 6.05029264,0.931285748 6.05029264,0.931285748 C6.05029264,0.931285748 4.93698161,6.33884363 6.05029264,7.92927379 C6.05029264,7.92927379 3.58537625,5.54339024 3.82367057,3.63506469 C3.82367057,3.63506469 0.483737458,7.29300641 4.53950669,13.4164247 C4.53950669,13.4164247 1.51793478,12.6209713 0.245443144,10.6330527 C0.245443144,10.6330527 0.484214047,20.2552267 7.6406689,23.1977847 C7.6406689,23.1977847 4.45991639,24.4703194 2.86954013,23.3569707 C2.86954013,23.3569707 7.88658863,36.4054564 19.3337709,30.5570391 Z" id="Path" fill="#FFE994"></path>
                            <path d="M7.72311873,41.6957695 C8.55285953,40.6715459 9.480301,39.7240555 10.528796,38.9014357 C11.574908,38.1121782 12.7868729,37.3329293 14.2619147,37.3500871 C15.7912876,37.4249141 16.8798161,38.5263477 17.7243311,39.5362733 C18.5793311,40.5943359 19.2465552,41.7777456 19.7798579,43.0102455 C21.8682692,47.8902019 21.9993311,53.9368868 19.0597324,58.4436617 L18.9763294,58.397431 C20.068194,56.0058282 20.4918813,53.4159578 20.4518478,50.8551603 C20.3546237,48.2962692 19.9075836,45.7359483 18.9486873,43.3543542 C18.4849666,42.1633188 17.8930435,41.0137481 17.1314548,40.0038226 C16.3803512,39.0258295 15.3928595,38.0587984 14.2261706,37.9825417 C11.778888,37.9858779 9.57371237,39.9709368 7.7955602,41.7572516 L7.72311873,41.6957695 Z" id="Path" fill="#FFCB01"></path>
                            <path d="M9.67474916,9.69128168 C8.78924749,14.2562023 10.4258528,19.0375015 13.4183528,22.4623835 C16.4537458,25.8991806 19.6821572,29.4579885 21.3187625,33.9280648 C23.0487793,38.339042 23.3642809,43.117005 23.2870736,47.7596122 C23.1083528,52.4212836 22.5126171,57.0405372 21.600903,61.5902064 L21.5065385,61.5763849 C21.877801,56.9528419 22.3286538,52.3478865 22.3329431,47.742931 C22.3777425,43.1613293 22.1284866,38.5063303 20.603403,34.1935336 C19.1131104,29.8407021 16.0429264,26.2952391 13.0523328,22.7678871 C10.0774666,19.1657082 8.5585786,14.2485766 9.58276756,9.66602163 L9.67474916,9.69128168 Z" id="Path" fill="#FFCB01"></path>
                            <path d="M41.1629599,26.7937678 C40.1397241,29.7296532 37.3850418,31.5817394 34.7247241,32.8800108 C32.0710786,34.2197469 29.1905769,35.4384253 27.5630268,37.8562414 C25.9759866,40.262619 25.8415886,43.3624565 25.8930602,46.2706989 C25.9383361,49.2294614 26.3582107,52.1920367 26.8510033,55.1531822 L26.7590217,55.1793955 C25.7338796,52.3369246 25.1614967,49.3452763 24.9394064,46.3073974 C24.8583863,43.312413 25.0366304,40.0243166 26.9382191,37.4172884 C28.8340886,34.8193157 31.8542308,33.7045371 34.5159783,32.4510665 C37.2091806,31.2671803 39.9305017,29.6128851 41.0738378,26.7594522 L41.1629599,26.7937678 Z" id="Path" fill="#FFCB01"></path>
                            <rect id="Rectangle" fill="#DCEEFD" x="14.4396823" y="46.2592603" width="18.2500084" height="25.2881732"></rect>
                        </g>
                        <g id="man" transform="translate(17.157191, 31.932521)" fill-rule="nonzero">
                            <path d="M70.8973244,23.924607 C70.8973244,23.924607 70.311597,23.1439283 70.2143729,22.4604771 C70.1166722,21.7775024 70.2143729,18.7515386 69.0433946,16.7021381 C67.8724164,14.6527375 62.3082441,15.0068548 62.304908,15.5311201 C62.296806,16.7021381 65.8945736,15.9295617 66.6013545,18.6543113 C66.789607,19.3801803 66.1257191,20.0831724 65.8111706,19.9235098 C64.9747575,19.4988549 64.676413,17.4098962 63.9686789,17.4832933 C63.4325167,17.5385795 63.0660201,20.9234266 64.4567057,22.314636 C65.4375251,23.2954886 67.7747157,25.3401232 68.4095318,27.0482747 C69.0443478,28.7564263 71.4911538,25.0298534 70.8973244,23.924607 Z" id="Path" fill="#F1B282"></path>
                            <path d="M72.4714967,23.7182371 C72.296112,23.4646833 71.9491555,23.4003417 71.6946572,23.5738258 L67.0374331,26.7499201 C66.7500502,26.9458047 66.6742726,27.3370972 66.8677676,27.6263963 C69.1868478,31.0913131 78.5985201,46.8731273 82.967408,47.7843957 L87.5726839,40.749709 C75.4516054,28.1177758 75.5364381,28.1468487 72.4714967,23.7182371 Z" id="Path" fill="#F0B701"></path>
                            <path d="M91.2366973,37.792853 C89.1525753,38.7808547 85.0786957,38.3805067 81.51,37.7318475 C80.2594314,37.5040305 78.9869398,37.9949334 78.2153428,39.0024759 C77.4437458,40.0147845 77.2993395,41.3688187 77.8436037,42.518866 L86.9188043,61.7179365 L67.7203846,70.7934448 C66.5703763,71.3377275 65.216388,71.1928396 64.2036371,70.416927 C63.1961288,69.6453039 62.7052425,68.3727691 62.9330518,67.1221582 C63.5821656,63.5581076 63.9825,59.4840899 62.9940552,57.3951311 C60.3280184,51.7545135 52.4438127,49.8814567 45.3912542,53.2138774 C38.3339298,56.5515407 34.7809615,63.8292957 37.4469983,69.4746794 C38.4302007,71.5588721 41.8349498,73.8384728 44.9999749,75.597621 C46.1113796,76.2195903 46.7857525,77.4039532 46.7447659,78.6745815 C46.6990134,79.9456865 45.9502926,81.0847719 44.8002843,81.6290546 L43.9214548,82.0456072 L26.4339883,90.3104107 L25.601388,90.7045629 L1.44787625,39.607764 C-1.22292642,33.9628569 1.18908863,27.2241419 6.83380435,24.5527721 L56.7507441,0.954162778 L57.7625418,0.476604784 L57.9283946,0.398918204 L67.0078846,19.5979887 C67.5473829,20.7485127 68.6864298,21.4967822 69.9574916,21.5430128 C71.2285535,21.5844775 72.4171656,20.9091285 73.0343478,19.7981627 C74.7934365,16.6330304 77.0729599,13.2281658 79.1570819,12.2449301 C84.8017977,9.5740369 92.079306,13.1318916 95.4173328,20.1894553 C98.7501171,27.2422529 96.8818896,35.1262492 91.2366973,37.792853 Z" id="Path" fill="#355AA2"></path>
                            <path d="M78.3363963,116.158595 L77.6801338,119.216491 C77.6801338,119.216491 77.7835535,120.745439 80.4510201,120.973256 C83.1184866,121.201073 84.0621321,119.834647 84.0621321,119.834647 C84.0621321,119.834647 84.8427843,116.158595 84.8103763,115.898368 C84.7779682,115.638142 78.3363963,116.158595 78.3363963,116.158595 Z" id="Path" fill="#F1B282"></path>
                            <path d="M78.7414967,118.392918 C78.4717475,118.097423 78.0323328,118.034511 77.6901421,118.240881 C76.4905686,118.96389 73.9403428,120.497128 73.7859281,120.554797 C72.4286037,121.061905 68.8046237,121.858311 68.8065301,123.222831 C68.8084365,124.653122 79.3124498,124.263259 83.1566137,124.073094 C83.9363127,124.034489 84.5520652,123.396791 84.5620736,122.616113 L84.6016304,119.453363 C84.6035368,119.292271 84.5196572,119.142617 84.3814465,119.060165 C84.2432358,118.977712 84.0711873,118.975329 83.9305936,119.053969 C83.2876756,119.414282 82.2877926,119.881831 81.3713127,119.923296 C80.3528428,119.96905 79.3105435,119.01584 78.7414967,118.392918 Z" id="Path" fill="#0B224E"></path>
                            <path d="M102.373144,105.828663 L104.656003,107.966235 C104.656003,107.966235 106.019523,108.665414 107.58893,106.495909 C109.158336,104.326404 108.473002,102.814137 108.473002,102.814137 C108.473002,102.814137 105.724515,100.251433 105.484314,100.14515 C105.24459,100.039344 102.373144,105.828663 102.373144,105.828663 Z" id="Path" fill="#F1B282"></path>
                            <path d="M104.496346,106.632218 C104.104114,106.711335 103.82388,107.055443 103.824356,107.455315 C103.826263,108.855579 103.826739,111.831976 103.796714,111.993545 C103.532207,113.418117 102.347885,116.934984 103.518863,117.636069 C104.745602,118.370994 109.822224,109.166802 111.639457,105.773853 C112.00786,105.085636 111.77862,104.229177 111.114732,103.81882 L108.42439,102.155946 C108.287609,102.07111 108.11556,102.065868 107.974013,102.142124 C107.83199,102.218381 107.741438,102.364222 107.736672,102.525315 C107.714273,103.262146 107.599891,104.359767 107.163336,105.166658 C106.677692,106.063152 105.323704,106.465406 104.496346,106.632218 Z" id="Path" fill="#0B224E"></path>
                            <path d="M83.0541472,71.6003367 C83.0541472,71.6003367 77.7840301,82.2386321 76.8079766,87.6066318 C75.8547993,92.849761 90.5446906,102.935195 101.505276,106.675113 C101.951839,106.827626 102.444632,106.640797 102.676731,106.229964 L106.864038,98.8211424 C107.14046,98.3316692 106.990811,97.7116064 106.520895,97.4027665 L88.812291,85.7521626 L93.5943813,71.6003367 L83.0541472,71.6003367 Z" id="Path" fill="#0B224E"></path>
                            <path d="M98.962199,68.8679615 C99.1576003,75.4069791 92.7389047,89.656509 92.0931271,96.0001186 C91.535995,101.474401 87.8257525,114.234064 86.8191973,117.62892 C86.6776505,118.106002 86.196296,118.397684 85.7087458,118.300933 L78.3082776,116.83299 C77.9975418,116.771508 77.7268395,116.582296 77.5619398,116.312061 C77.3970401,116.041826 77.353194,115.714876 77.4404097,115.410325 C78.4212291,111.980677 81.2240468,102.091128 81.7854682,99.1233098 C82.4684197,95.5120753 81.4928428,79.9876277 83.5421739,72.5764233 C85.591505,65.1652189 98.962199,68.8679615 98.962199,68.8679615 Z" id="Path" fill="#102B5E"></path>
                            <path d="M69.6353177,67.5358511 C69.6353177,67.5358511 66.0747241,66.9272268 64.4385953,67.148848 C62.8024666,67.3704693 61.0419482,67.7169609 61.1091472,68.1287475 C61.1763462,68.5400574 64.8422659,68.8712977 64.8422659,68.8712977 C64.8422659,68.8712977 64.0973579,70.1161894 62.4893478,70.1943526 C60.8818144,70.2725158 59.8480936,70.4650641 59.7818478,70.8001173 C59.715602,71.1351705 64.4176254,72.6946213 66.1047492,71.9711352 C67.7913963,71.2471726 71.2428512,70.3416235 71.2428512,70.3416235 L69.6353177,67.5358511 Z" id="Path" fill="#F1B282"></path>
                            <path d="M84.4362542,39.3680318 C84.4362542,39.3680318 84.1121739,38.0035123 83.8638712,37.0574518 C83.3596405,35.1362579 81.9961204,37.3710577 80.6392726,36.5779874 C80.1669732,36.3020332 79.6365301,34.3417577 79.3014883,34.1458732 C78.953102,33.9423629 78.1996154,34.829801 78.0275669,33.6702216 C77.8383612,32.393874 77.7068227,27.9662155 78.8163211,26.1899095 C80.0154181,24.2696688 85.2707609,22.737861 86.7863127,25.0160319 C88.3018645,27.2942028 89.3708528,37.4878259 89.3708528,37.4878259 L84.4362542,39.3680318 Z" id="Path" fill="#F1B282"></path>
                            <path d="M84.7593813,30.4030958 C83.83051,30.938323 84.6821739,27.6325922 83.6022241,27.3046881 C82.5222742,26.9763074 77.0429348,29.9431722 76.0992893,26.3681597 C75.1556438,22.7931472 78.9135452,20.5073507 80.773194,20.0193074 C82.6328428,19.5312641 89.8622157,18.0928708 91.6451338,24.8883018 C93.4280518,31.6837328 88.9852926,33.690239 88.3514298,33.1683567 C87.7180435,32.6464745 88.7770234,28.0872731 84.7593813,30.4030958 Z" id="Path" fill="#0B224E"></path>
                            <path d="M89.3975418,35.9121705 C88.8666221,35.5142055 83.9320234,37.1799392 83.7370987,37.7175494 C83.5416973,38.254683 83.1189632,41.6705095 84.0297241,41.4102833 C84.9404849,41.1500571 90.6338127,37.8314579 90.503704,37.4740044 C90.3735953,37.1160742 89.7883445,36.2048058 89.3975418,35.9121705 Z" id="Path" fill="#FFE270"></path>
                            <path d="M80.9071154,74.7235279 C81.5757692,77.7990585 89.6458445,73.3494763 93.6920819,72.7713547 C97.7912207,72.1856074 102.37791,74.4304159 103.353963,70.0385028 C104.330017,65.6465898 98.4741722,59.0098681 97.7912207,54.5202511 C96.5225418,43.198981 91.9353763,38.0259127 90.3740719,37.7332774 C88.8127676,37.440642 83.8352759,41.0985837 83.8352759,41.0985837 C79.8338378,49.5387779 83.1523244,56.4724243 83.1523244,60.9658542 C83.1523244,62.3256076 82.8577926,63.7101445 82.4741388,65.1051667 C82.1481522,66.2871466 81.7587793,67.4767521 81.4289799,68.663498 C80.8632692,70.7067027 80.4767559,72.7422818 80.9071154,74.7235279 Z" id="Path" fill="#FFCB01"></path>
                            <path d="M81.4280268,68.6639746 C85.0262709,67.7865452 92.5897324,65.6051251 94.2120401,62.4585804 C96.3590719,58.294961 90.8616221,48.5674573 90.8616221,48.5674573 C92.5206271,56.2774929 91.7399749,64.7686837 85.591505,65.1652189 C84.6583445,65.2257477 83.6007943,65.197628 82.4731856,65.1056433 C82.147199,66.2871466 81.7578261,67.4772287 81.4280268,68.6639746 Z" id="Path" fill="#F0B701"></path>
                            <path d="M69.3450753,71.3405871 C69.6429431,71.5884216 82.991714,67.3533115 88.199398,64.3783444 C93.4070819,61.4033774 90.8616221,48.5674573 90.8616221,48.5674573 L82.5213211,50.0435023 L82.8816221,56.882781 C82.8816221,56.882781 69.6748746,64.8168208 69.4008361,65.2667357 C68.3809365,66.9348525 69.0438712,71.089893 69.3450753,71.3405871 Z" id="Path" fill="#FFCB01"></path>
                        </g>
                        <g id="woman" transform="translate(0.953177, 86.265466)">
                            <path d="M29.7262625,3.45014203 C30.9968478,3.58549779 31.3538127,5.63537497 31.852801,6.14486548 C32.3513127,6.654356 33.135301,7.33876047 33.2010702,7.80821618 C33.2668395,8.27767189 32.0772742,8.52121694 32.4185117,9.63075287 C32.7602258,10.7402888 33.0809699,12.1434133 31.4310201,12.8764315 C29.7810702,13.6094496 30.3934866,15.0940735 30.6498913,16.5701185 C30.9058194,18.0461635 30.0436706,18.5551775 29.4450753,18.6581241 C28.8464799,18.7610707 22.323888,17.9184335 22.1213378,13.7676824 C21.9497659,10.2512923 22.3929933,5.9675685 24.9832525,4.59018068 C27.5735117,3.21279285 28.6525084,3.33528028 29.7262625,3.45014203 Z" id="Path" fill="#F1B282" fill-rule="nonzero"></path>
                            <path d="M44.0987458,69.7901917 L41.0609699,69.7901917 C40.6387124,68.9103793 40.3584783,68.1563905 40.2207441,67.5282254 C40.0139047,66.5859778 39.7031689,64.831119 40.0139047,63.5590608 C40.3246405,62.2870026 43.9028679,62.4085369 44.3541973,62.8160339 C44.8055268,63.223531 44.7321321,64.2844533 46.5202926,65.2343266 C47.6007191,65.8081588 49.6004849,66.1007941 52.5191137,67.3766651 C53.0876839,67.6254528 53.4551338,68.1868933 53.4551338,68.8074327 C53.4551338,69.3755456 52.9999916,69.839282 52.431898,69.8492907 C49.2549582,69.9064833 47.277592,69.9350796 46.4993227,69.9350796 C45.6552843,69.6290993 44.855092,69.2521049 44.0977926,68.8045731 L44.0977926,69.7901917 L44.0987458,69.7901917 Z" id="Path" fill="#03193F"></path>
                            <path d="M44.9985452,41.677182 C43.5406605,38.5844935 22.9996906,34.866023 20.350811,35.7310607 C17.7019314,36.5960983 16.3508027,38.1636515 16.3508027,40.488053 C16.3508027,43.730872 25.5151254,48.5231331 36.6877926,47.6833554 C37.160092,53.0689895 38.2147826,63.7130041 39.2532692,64.751526 C40.018194,65.5164766 46.8172074,64.6862311 46.8172074,63.6839313 C46.8172074,60.6198391 46.6694649,45.2221683 44.9985452,41.677182 Z" id="Path" fill="#0B224E" fill-rule="nonzero"></path>
                            <path d="M11.8265468,62.0096186 C11.8265468,62.0096186 5.76910535,62.1316295 5.00751672,66.5526155 L4.13631271,66.4992357 L6.2323495,58.6223884 L11.1898244,58.156269 L11.8265468,62.0096186 Z" id="Path" fill="#F1B282" fill-rule="nonzero"></path>
                            <path d="M5.53367057,58.3083059 C6.45110368,58.3559664 6.99155518,58.3979076 8.11058528,58.3478641 C8.53093645,58.3287999 7.77506689,59.2462641 7.50817726,61.1054994 C7.27750836,62.7145171 8.95176421,63.0290763 8.62577759,63.2373526 C8.13775084,63.5490521 7.95617057,63.4270413 6.63363712,64.8296892 C5.83964047,65.6723264 4.5180602,67.1774443 2.66889632,69.3459961 C2.28333612,69.7978174 1.67187291,69.9860763 1.09901338,69.8292733 C0.577625418,69.6862919 0.266889632,69.1515413 0.400811037,68.6272761 C1.09996656,65.8972839 1.54700669,64.1776938 1.74193144,63.4675527 C2.23520067,62.7698033 2.782801,62.1297231 3.38473244,61.547312 L2.48016722,61.2990009 L3.24509197,58.5099097 C4.15966555,58.3435746 4.92220736,58.2763734 5.53367057,58.3083059 Z" id="Path" fill="#03193F"></path>
                            <path d="M30.3782358,41.1905685 C30.3782358,41.1905685 18.3343645,39.0191571 17.7295736,40.4337201 C16.7144398,42.8072119 18.7895067,50.8184617 20.7535284,55.7036607 C14.9801338,55.9829512 7.58109532,56.6859432 7.32564381,57.1039256 C6.92769231,57.7554443 10.488286,64.3321138 11.1250084,64.6981462 C11.7617308,65.0641787 26.9320234,64.4612737 29.7019565,62.8656008 C32.328913,61.3533339 30.3782358,41.1905685 30.3782358,41.1905685 Z" id="Path" fill="#102B5E" fill-rule="nonzero"></path>
                            <path d="M44.5009866,32.3319153 C44.5009866,32.3319153 47.1555853,30.8048736 48.6825753,30.865879 C50.2095652,30.9268844 50.8200753,30.7076462 50.7590719,31.2447798 C50.6980686,31.7819134 48.8655853,32.4539262 48.4380853,32.3319153 C48.0105853,32.2099045 52.7745652,32.0264117 52.8355686,33.0649335 C52.8965719,34.1034553 51.3085786,36.4674151 49.415092,36.2319723 C47.5216054,35.9965295 43.9181187,34.347477 43.9181187,34.347477 L44.5009866,32.3319153 Z" id="Path" fill="#F1B282" fill-rule="nonzero"></path>
                            <path d="M30.4073077,18.7029249 C30.4073077,18.7029249 31.107893,15.621675 30.7294816,15.1350615 C30.3510702,14.648448 26.026505,13.3511298 25.5403846,13.5675084 C25.0537876,13.783887 24.7563963,16.8108039 24.7563963,16.8108039 L30.4073077,18.7029249 Z" id="Path" fill="#1277D7" fill-rule="nonzero"></path>
                            <path d="M44.9456438,31.5683945 C44.1349666,31.081781 37.7024498,31.8929623 32.8912876,22.5410233 C31.4782023,19.4259344 30.8858027,18.1805661 30.1499498,17.4446883 C29.943587,17.2383184 26.3591639,14.8205024 25.539908,15.1355381 C24.8374164,15.405773 21.9411873,18.0547424 21.4431522,22.5414999 C20.9451171,27.0282573 14.5855184,33.8737318 15.6478344,40.7044316 C16.3503261,45.2226449 20.1344398,42.7585982 22.9453595,42.6504089 C24.9622826,42.5727223 28.8660201,46.380318 30.3925334,44.8666212 C31.2308528,44.0349458 31.4448411,38.2923348 31.4052843,33.0072643 C33.9431187,35.3016398 37.8640134,37.0951036 43.9185953,36.9740459 C44.9994983,36.703811 45.7563211,32.055008 44.9456438,31.5683945 Z" id="Path" fill="#1B90FB" fill-rule="nonzero"></path>
                            <path d="M30.8595903,43.6589046 C28.7740385,41.6342875 22.8366973,34.691109 26.8533863,24.4603107 C26.8533863,24.4603107 26.8915134,28.9985415 31.3762124,32.9824809 C31.3857441,32.9915364 31.3957525,33.0001153 31.4052843,33.0091707 C31.4367391,37.1279893 31.3128261,41.5260982 30.8595903,43.6589046 Z" id="Path" fill="#1277D7" fill-rule="nonzero"></path>
                            <polygon id="Path" fill="#03193F" fill-rule="nonzero" points="36.6901756 47.6981302 36.6901756 47.6900279 36.8374415 47.6728701 39.867592 47.2939693 39.8842726 47.2939693 37.4231689 55.0983727"></polygon>
                            <path d="M10.2423662,29.8926521 C14.1441973,33.7946154 22.2843311,30.1090306 23.6149666,25.0818034 C24.945602,20.0545761 24.007199,16.1454637 25.4860535,14.5135689 C26.964908,12.8816741 27.4591304,12.8378265 27.4591304,11.8107432 C27.4591304,10.7836598 25.2696823,8.24287974 26.1346906,7.21579643 C26.999699,6.18871312 32.3508361,4.97241771 31.4319732,2.37778127 C30.5131104,-0.216855177 24.2116555,-1.24393849 20.6324749,3.18848601 C17.0532943,7.6209105 18.5936288,10.6483041 16.8640886,14.2700238 C15.1345485,17.8922202 3.53342809,23.1834865 10.2423662,29.8926521 Z" id="Path" fill="#0B224E" fill-rule="nonzero"></path>
                        </g>
                    </g>
                </g>
            </g>
        </g>
    </g>
</svg>