<?xml version="1.0" encoding="UTF-8"?>
<svg width="355px" height="250px" viewBox="0 0 355 250" version="1.1" xmlns="http://www.w3.org/2000/svg" xmlns:xlink="http://www.w3.org/1999/xlink">
    <!-- Generator: Sketch 52.3 (67297) - http://www.bohemiancoding.com/sketch -->
    <title>分组 3</title>
    <desc>Created with Sketch.</desc>
    <defs>
        <linearGradient x1="50%" y1="0%" x2="50%" y2="100%" id="linearGradient-1">
            <stop stop-color="#FFFFFF" offset="0%"></stop>
            <stop stop-color="#FFFFFF" offset="50.7891681%"></stop>
            <stop stop-color="#CCE5D9" offset="100%"></stop>
        </linearGradient>
    </defs>
    <g id="页面设计-" stroke="none" stroke-width="1" fill="none" fill-rule="evenodd">
        <g id="码上参与-一键登录" transform="translate(-10.000000, -98.000000)">
            <g id="分组-3" transform="translate(10.000000, 98.000000)">
                <path d="M4,0 L351,0 C353.209139,-4.05812251e-16 355,1.790861 355,4 L355,250 L0,250 L0,4 C-2.705415e-16,1.790861 1.790861,4.05812251e-16 4,0 Z" id="矩形" fill="url(#linearGradient-1)" fill-rule="nonzero" opacity="0.25"></path>
                <g id="分组-15" transform="translate(37.000000, 28.000000)">
                    <path d="M56.0259619,168.581191 C16.2380849,168.581191 1.13686838e-13,136.100237 1.13686838e-13,99.9485682 C1.13686838e-13,63.7968994 15.9654333,41.5381516 36.5481629,41.5381516 C57.1308925,41.5381516 51.2841941,63.1573313 75.367435,63.1573313 C99.4506759,63.1573313 112.493501,12.0809249 146.980971,12.0809249 C181.46844,12.0809249 155.249922,60.2221445 185.766161,60.2221445 C216.2824,60.2221445 250.544636,48.1094286 250.544636,97.5292896 C250.544636,146.949151 311.953986,170.14425 266.052686,170.14425 C220.151386,170.14425 56.0259619,168.581191 56.0259619,168.581191 Z" id="bg_4_" fill="#F3F9FF" fill-rule="nonzero"></path>
                    <g id="rocket" transform="translate(65.346821, -0.000000)" fill-rule="nonzero">
                        <path d="M20.1707886,32.2484737 C13.5011958,32.2484737 8.09508666,43.0771072 8.09508666,56.434829 L8.09508666,163.257527 L20.1707886,163.257527 L32.2464905,163.257527 L32.2464905,56.434829 C32.2469844,43.0771072 26.8403813,32.2484737 20.1707886,32.2484737 Z" id="Path" fill="#355AA2"></path>
                        <polygon id="Path" fill="#355AA2" points="100.677114 59.4036513 88.6014125 59.4036513 88.6014125 163.258517 100.677114 163.258517 112.752322 163.258517 112.752322 59.4036513"></polygon>
                        <rect id="Rectangle" fill="#224380" x="8.09508666" y="92.7141146" width="24.1518977" height="4.0308119"></rect>
                        <rect id="Rectangle" fill="#224380" x="8.09508666" y="100.776233" width="24.1518977" height="4.0308119"></rect>
                        <rect id="Rectangle" fill="#224380" x="88.6009185" y="92.7141146" width="24.1518977" height="4.0308119"></rect>
                        <rect id="Rectangle" fill="#224380" x="88.6009185" y="100.776233" width="24.1518977" height="4.0308119"></rect>
                        <path d="M60.4239515,0 C60.4234575,0 60.4224697,0 60.4219757,0 C44.1848787,0.00395711071 32.2469844,32.1411371 32.2469844,48.3727106 L32.2469844,145.117637 C39.120078,145.117637 81.7959879,145.117637 88.6014125,145.117637 L88.6014125,48.3727106 C88.6009185,30.5622499 75.9858406,0 60.4239515,0 Z" id="Path" fill="#224380"></path>
                        <polygon id="Path" fill="#DAE7FF" points="84.5758492 193.490348 36.2720537 193.490348 44.3226863 173.335299 76.5252166 173.335299"></polygon>
                        <polygon id="Path" fill="#C3D3F3" points="78.1354419 177.366111 76.5252166 173.335299 44.3226863 173.335299 42.712461 177.366111"></polygon>
                        <path d="M111.371776,146.501142 C97.6102773,132.720009 88.6014125,114.922904 88.6014125,95.433639 L88.6014125,88.6833027 L32.2469844,88.6833027 L32.2469844,95.433639 C32.2469844,114.922904 23.2376256,132.720504 9.47662045,146.501142 C3.64918544,152.336396 0.0449480069,160.398515 0.0449480069,169.303992 L32.2474783,169.303992 L88.6019064,169.303992 L120.804437,169.303992 C120.803449,160.398515 117.199211,152.336396 111.371776,146.501142 Z" id="Path" fill="#1B90FB"></path>
                        <path d="M60.4239515,16.1242369 C44.8620624,16.1242369 32.2469844,48.6096426 32.2469844,88.6833027 L32.2469844,157.211062 C32.2469844,166.116045 39.4559532,173.335299 48.3482496,173.335299 L72.5001473,173.335299 C81.3924437,173.335299 88.6014125,166.116045 88.6014125,157.211062 L88.6014125,88.6833027 C88.6009185,48.6096426 75.9858406,16.1242369 60.4239515,16.1242369 Z" id="Path" fill="#DCEEFD"></path>
                        <path d="M32.2469844,88.6833027 L32.2469844,157.211062 C32.2469844,166.116045 39.4559532,173.335299 48.3482496,173.335299 L60.4239515,173.335299 L60.4239515,16.1242369 C44.8620624,16.1242369 32.2469844,48.6096426 32.2469844,88.6833027 Z" id="Path" fill="#F3F9FF"></path>
                        <path d="M88.3539515,173.335299 L32.4939515,173.335299 C32.3576256,173.335299 32.2469844,173.2245 32.2469844,173.08798 L32.2469844,145.118132 L88.6014125,145.118132 L88.6014125,173.08798 C88.6009185,173.2245 88.4902773,173.335299 88.3539515,173.335299 Z" id="Path" fill="#224380"></path>
                        <polygon id="Path" fill="#183168" points="60.4239515 137.055519 56.3983882 145.117637 56.3983882 177.366111 60.4239515 185.428229 64.4490208 177.366111 64.4490208 145.117637"></polygon>
                        <rect id="Rectangle" fill="#AEC1E8" x="36.2720537" y="185.428229" width="48.3037955" height="8.06211843"></rect>
                        <rect id="Rectangle" fill="#224380" x="32.2469844" y="112.869163" width="56.3544281" height="4.0308119"></rect>
                        <rect id="Rectangle" fill="#224380" x="8.09508666" y="56.434829" width="24.1518977" height="4.0308119"></rect>
                        <rect id="Rectangle" fill="#224380" x="88.6014125" y="56.4358183" width="24.1509099" height="4.02734942"></rect>
                        <path d="M68.9462912,49.9629745 C67.4763432,46.5499665 64.1348787,44.3414041 60.4239515,44.3414041 C56.7130243,44.3414041 53.3681023,46.5460094 51.9055633,49.9629745 L44.5074177,46.7824467 C47.2393674,40.4011111 53.4856586,36.2797803 60.4239515,36.2797803 C67.3543414,36.2797803 73.6006326,40.4016057 76.3365338,46.7824467 L68.9462912,49.9629745 Z" id="Path" fill="#224380"></path>
                    </g>
                    <g id="plant_28_" transform="translate(13.728324, 102.138728)" fill-rule="nonzero">
                        <g id="Group" transform="translate(15.311958, 0.000000)">
                            <path d="M2.10070191,53.9700437 C2.10070191,49.7418709 7.76464471,48.5042845 7.76464471,45.6170776 C7.76464471,42.7293761 0.247461005,41.1826404 0.247461005,35.9231457 C0.247461005,30.6636509 7.76464471,31.3858236 7.76464471,27.3639152 C7.76464471,23.3420068 4.00580589,23.3420068 4.00580589,18.3921559 C4.00580589,13.4423051 13.7372964,0.242373031 18.0621837,0.242373031 C22.3870711,0.242373031 26.7124523,12.6172475 26.7124523,16.7420408 C26.7124523,20.866834 19.4012392,22.7232136 19.4012392,26.2297083 C19.4012392,29.7362031 26.7124523,29.9533495 26.7124523,33.4024661 C26.7124523,36.8515828 17.8562132,39.9633557 17.8562132,42.5231117 C17.8562132,45.0828677 24.2408059,46.7512845 24.2408059,51.5982505 C24.2408059,56.4452164 18.0774957,66.1386538 14.9726256,66.1386538 C11.8682496,66.1386538 2.10070191,58.1982165 2.10070191,53.9700437 Z" id="Path" fill="#9E95E3"></path>
                            <path d="M15.3840728,70.0779575 C15.2274957,70.0779575 15.0877123,69.9651798 15.060052,69.8049168 C11.8089775,51.2302392 11.9833362,38.1945272 12.7015165,30.5296038 C13.4819324,22.1984018 15.0146101,18.3258743 15.0793154,18.1651167 C15.1474783,17.9959502 15.3406066,17.9148295 15.5075563,17.9830896 C15.6764818,18.0513498 15.7579809,18.2432696 15.690312,18.4124361 C15.6745061,18.451018 14.1215771,22.3863646 13.3530156,30.6389189 C12.6427383,38.2573463 12.4757886,51.2168839 15.7095754,69.6911499 C15.7406932,69.8707038 15.6211612,70.0418488 15.4418631,70.0730111 C15.4221057,70.0764735 15.4028423,70.0779575 15.3840728,70.0779575 Z" id="Path" fill="#877CD8"></path>
                        </g>
                        <path d="M2.28246967,59.9274739 C0.658414211,56.1232065 -1.76383882,50.7331271 3.18735702,47.5501262 C8.13855286,44.3671253 3.61856153,42.4825513 3.45753899,37.8690548 C3.29651646,33.2555584 8.35094454,32.0704037 8.19930676,29.8826162 C8.04816291,27.6953232 7.79724437,23.8272475 8.2635182,22.1766377 C9.04442808,19.4145744 14.8861872,18.160665 15.4823657,25.9373768 C15.8567678,30.8239139 16.3605806,33.7744345 18.9631196,37.2601544 C21.5656586,40.7458743 15.8330589,44.4314283 15.9387608,47.2375145 C16.0449567,50.0436006 18.8692721,49.628104 18.5605633,55.5751467 C18.2518544,61.5221895 14.3482929,66.0194458 10.6368718,65.7543194 C8.11681976,65.5747655 3.76476603,63.4003331 2.28246967,59.9274739 Z" id="Path" fill="#8AE6B9"></path>
                        <path d="M14.8091334,39.804082 C14.6866378,39.7412629 14.5384575,39.7907267 14.4772097,39.9129025 C14.4337435,39.9974858 13.4117938,41.9572448 11.7610659,41.3339999 C11.9586395,40.0227124 12.0470537,38.7945241 11.9527123,37.6840599 C11.954688,37.6766403 11.9591334,37.6711993 11.9606153,37.6632851 C11.9714818,37.6088748 11.9596274,37.5569377 11.9374003,37.5104417 C11.9166551,37.3130808 11.8919584,37.1186877 11.8588648,36.9297357 C11.3491248,34.032636 11.6919151,30.2808004 11.8964038,28.0386026 C12.0159359,26.7283043 12.0707626,26.0862631 12.0006239,25.8117385 C11.9670364,25.6786807 11.8307106,25.5980545 11.7008059,25.6331739 C11.5684315,25.6663147 11.4884142,25.8013511 11.5224957,25.9334197 C11.5738648,26.1377055 11.4958232,26.9973878 11.4044454,27.9935904 C11.197487,30.259531 10.8507452,34.0529162 11.3728336,37.0153082 C11.3876516,37.0989022 11.3975303,37.1859586 11.4093847,37.2715311 C10.6699653,37.0345991 8.98663778,36.3173728 8.42256499,34.5747602 C8.38058059,34.4451648 8.24277296,34.3744315 8.11138648,34.4159811 C7.9814818,34.4580254 7.91084922,34.5975136 7.95283362,34.7276036 C8.65175043,36.888186 10.7974003,37.6256925 11.467175,37.807225 C11.6479549,40.1800075 10.9589168,43.1656475 10.230364,46.3100666 C9.65048527,48.8129392 9.05084922,51.4008896 8.8552513,53.8483625 C8.75844021,55.0622062 8.82610919,56.3037497 8.99256499,57.5235291 C7.79279896,56.9398553 4.35649913,55.0463778 4.26709705,52.4747505 C4.26265165,52.3387248 4.14311958,52.2348506 4.0117331,52.2363346 C3.87540728,52.2412809 3.7687175,52.3555425 3.77365685,52.4925575 C3.88380416,55.6508265 8.25561525,57.7451273 9.08246101,58.1131386 C9.49440208,60.6456894 10.2940815,63.0466664 10.897669,64.8525928 C11.3110919,66.0906738 11.6687002,67.1595883 11.6035009,67.468243 C11.5753466,67.6017954 11.6607972,67.7328747 11.7941594,67.7610691 C11.8114471,67.7650263 11.8282409,67.7665102 11.8455286,67.7665102 C11.9596274,67.7665102 12.0623657,67.6868733 12.0870624,67.5701386 C12.1754766,67.1487063 11.9151733,66.3404664 11.3664125,64.6957923 C10.4575737,61.9767626 9.09727903,57.893519 9.33683709,54.1060694 C10.1296014,54.053143 12.7005286,53.6960138 13.4019151,51.3024564 C13.4404419,51.1713771 13.365364,51.0338675 13.2344714,50.9957803 C13.1040728,50.9571985 12.9662652,51.0323836 12.9277383,51.1634629 C12.322175,53.2285801 10.1439255,53.5589988 9.37585789,53.6109359 C9.5902253,51.2801977 10.1582496,48.8129392 10.7119497,46.4223496 C11.0804246,44.8325804 11.4385269,43.2828769 11.6825303,41.8236924 C11.9290035,41.9058024 12.1685615,41.954277 12.3947834,41.954277 C13.6399913,41.954277 14.5587088,40.8477699 14.917799,40.1359846 C14.9790468,40.0143035 14.9306412,39.8654172 14.8091334,39.804082 Z" id="Path" fill="#45D48F"></path>
                    </g>
                    <g id="paperplane_4_" transform="translate(190.549133, 9.884393)" fill-rule="nonzero">
                        <path d="M16.192643,33.9228262 C15.5139775,33.9228262 14.8180243,33.907987 14.1240468,33.8783087 C13.987721,33.872373 13.8820191,33.7571222 13.8874523,33.6206019 C13.8928856,33.4840815 14.0198267,33.3742717 14.144792,33.3836699 C14.8323484,33.4128535 15.5213865,33.4276927 16.192643,33.4276927 L16.6011265,33.4257142 C16.6016205,33.4257142 16.6026083,33.4257142 16.6031023,33.4257142 C16.7384402,33.4257142 16.8490815,33.5350293 16.8500693,33.671055 C16.8510572,33.8075753 16.7418977,33.9193637 16.605078,33.920353 L16.192643,33.9228262 Z M19.0698094,33.8308234 C18.9403986,33.8308234 18.832227,33.7304117 18.8233362,33.5993324 C18.8144454,33.4628121 18.9176776,33.345088 19.0540035,33.3366792 C19.8754159,33.2837528 20.6968284,33.2055999 21.4960139,33.1051882 C21.6328336,33.0893597 21.7548354,33.1843304 21.7721231,33.3198614 C21.7894107,33.4553925 21.6930936,33.5790522 21.5577556,33.5963646 C20.7486915,33.6982602 19.9169064,33.7774024 19.0856153,33.8308234 C19.080182,33.8308234 19.0752426,33.8308234 19.0698094,33.8308234 Z M11.6706759,33.7145832 C11.6632669,33.7145832 11.6558579,33.7145832 11.6484489,33.713594 C10.837409,33.6403874 10.0085875,33.5473953 9.18421144,33.4365962 C9.04887348,33.4182946 8.95403813,33.2936456 8.97231369,33.1586092 C8.99058925,33.0235728 9.11456672,32.9276128 9.24990468,32.9464091 C10.0673657,33.0562189 10.8892721,33.1487164 11.6929029,33.2209337 C11.8287348,33.2332997 11.9290035,33.3534969 11.9166551,33.4895226 C11.9048007,33.617634 11.7971231,33.7145832 11.6706759,33.7145832 Z M23.9642028,33.2090623 C23.8481282,33.2090623 23.744896,33.1269523 23.722175,33.0087336 C23.6959965,32.8746865 23.7839168,32.7450911 23.917773,32.7188753 C24.7288128,32.5610855 25.5319497,32.3751013 26.3049567,32.165869 C26.4358492,32.1307497 26.572669,32.2079133 26.6077383,32.3404765 C26.6433016,32.4725451 26.56526,32.6080762 26.4333795,32.6436902 C25.6490121,32.8558902 24.8340208,33.0448423 24.0116205,33.2046106 C23.9958146,33.2075784 23.9800087,33.2090623 23.9642028,33.2090623 Z M6.7762825,33.0601761 C6.76195841,33.0601761 6.74763432,33.0591868 6.73331023,33.0567136 C5.93363085,32.9162362 5.11518198,32.7569624 4.30068458,32.5823549 C4.16732236,32.5536659 4.08236568,32.4225866 4.11101386,32.2890341 C4.13966205,32.1554816 4.27104853,32.0689198 4.40391681,32.0990928 C5.21298094,32.2722164 6.0255026,32.4305008 6.81876083,32.5694943 C6.95311092,32.593237 7.04300693,32.7213485 7.01929809,32.8558902 C6.99805893,32.9755928 6.89433276,33.0601761 6.7762825,33.0601761 Z M1.94708839,32.0283594 C1.92683709,32.0283594 1.90707972,32.0258862 1.88682842,32.0209399 C1.46747834,31.9160764 1.04467071,31.8062666 0.618405546,31.6915104 C0.48652513,31.6558964 0.408483536,31.5203654 0.44355286,31.3887914 C0.479116118,31.2567229 0.614948007,31.1790646 0.745840555,31.2136893 C1.16963605,31.3274562 1.58948007,31.4367714 2.00636049,31.5411402 C2.13873484,31.574281 2.2192461,31.7083281 2.18565858,31.8408913 C2.1584922,31.953669 2.05772964,32.0283594 1.94708839,32.0283594 Z M28.72474,31.9145925 C28.6229896,31.9145925 28.5281542,31.8517734 28.4920971,31.7503724 C28.4461612,31.6217663 28.5128423,31.4802996 28.6417591,31.4342982 C29.4177296,31.1568058 30.180364,30.8466673 30.9089168,30.512786 C31.0324003,30.4549133 31.1790988,30.5108075 31.2363951,30.6349618 C31.2931976,30.7591162 31.2388648,30.9055293 31.1143934,30.9629074 C30.3734922,31.3032189 29.5970277,31.6183038 28.807721,31.900248 C28.7800607,31.9101408 28.7519064,31.9145925 28.72474,31.9145925 Z M33.2052166,29.8519486 C33.119766,29.8519486 33.0367851,29.8079257 32.9913432,29.7282888 C32.9226863,29.6100702 32.9631889,29.4587107 33.0812392,29.3904505 C33.794974,28.9769324 34.4840121,28.5287897 35.1290901,28.0583881 C35.2397314,27.9782566 35.3938388,28.0024939 35.4743501,28.1127984 C35.5548614,28.2231029 35.5301646,28.3779248 35.4200173,28.4585509 C34.7611092,28.9388453 34.057747,29.3963862 33.3287002,29.8188077 C33.2896794,29.8415611 33.247201,29.8519486 33.2052166,29.8519486 Z M37.1823744,26.9385258 C37.1161872,26.9385258 37.0495061,26.9118153 37.0011005,26.8593836 C36.952201,26.8064572 36.9304679,26.7377024 36.9359012,26.6714208 C36.6583102,26.6402586 36.3871404,26.6011821 36.1228856,26.5541914 C35.9885355,26.5304487 35.8986395,26.4023373 35.9228423,26.2677955 C35.9460572,26.1332538 36.074974,26.0427349 36.2088302,26.0674668 C36.5689081,26.1307806 36.9423224,26.1797498 37.3270971,26.2138799 C37.8175737,25.738532 38.2739688,25.2443878 38.6893674,24.7403508 C38.7762998,24.6354874 38.9313951,24.6201536 39.0370971,24.70721 C39.142305,24.7942664 39.1571231,24.9500777 39.0701906,25.0554357 C38.7333276,25.4640074 38.370286,25.8661488 37.9845234,26.2579027 C38.1949393,26.2673009 38.407825,26.2722473 38.6231802,26.2732366 C38.7595061,26.2737312 38.8696534,26.3850249 38.8691594,26.5215452 C38.8686655,26.6575709 38.7580243,26.7678754 38.6221924,26.7678754 C38.6216984,26.7678754 38.6216984,26.7678754 38.6212045,26.7678754 C38.242851,26.7663915 37.8709185,26.7515523 37.5083709,26.7248418 C37.4560139,26.7748003 37.4031629,26.8237696 37.350312,26.8727388 C37.3024003,26.9167617 37.2421404,26.9385258 37.1823744,26.9385258 Z M41.0854419,26.6160213 C40.9619584,26.6160213 40.8557626,26.5240184 40.8404506,26.3983802 C40.8241508,26.2628491 40.9204679,26.1396841 41.0562998,26.1228663 C41.8268371,26.0293796 42.637383,25.8889022 43.4652166,25.7063804 C43.5990728,25.6762075 43.7304593,25.7607907 43.7596014,25.8943432 C43.7887435,26.0278957 43.7047747,26.1599643 43.5719064,26.189148 C42.7282669,26.3751322 41.902409,26.5185774 41.1155719,26.6140427 C41.1056932,26.6155266 41.0953206,26.6160213 41.0854419,26.6160213 Z M33.802383,25.8656541 C33.7697834,25.8656541 33.7361958,25.8592238 33.7045841,25.845374 C32.8915685,25.4941804 32.1679549,25.0430698 31.552513,24.5049027 C31.4497747,24.4148784 31.4394021,24.2585726 31.5292981,24.1556877 C31.6187002,24.0523082 31.7752773,24.0424154 31.8780156,24.1324397 C32.4544367,24.6369713 33.135078,25.0603821 33.9006759,25.3912955 C34.0256412,25.4452111 34.0834315,25.5911296 34.0295927,25.7162732 C33.9885962,25.80976 33.8977123,25.8656541 33.802383,25.8656541 Z M45.9067331,25.5693655 C45.8000433,25.5693655 45.7017504,25.4996214 45.6701386,25.3922848 C45.6316118,25.2612055 45.7061958,25.1236959 45.8365945,25.0846194 C46.6333102,24.8481821 47.4211352,24.6102608 48.1995754,24.3708556 C48.329974,24.3298006 48.4682756,24.4039964 48.5082842,24.534581 C48.5482929,24.6651657 48.4751906,24.8036646 48.344792,24.8437303 C47.56487,25.0836301 46.7750693,25.3225407 45.9773657,25.5589781 C45.9536568,25.5663977 45.929948,25.5693655 45.9067331,25.5693655 Z M50.6302253,24.1166112 C50.5255113,24.1166112 50.4282062,24.0493403 50.3946187,23.9439823 C50.3536222,23.8138922 50.4252426,23.6748987 50.5551473,23.6333491 C51.3518631,23.3795993 52.1352426,23.1263443 52.9042981,22.8735838 C53.0346967,22.8315395 53.1729983,22.9012836 53.2159705,23.0313736 C53.2584489,23.160969 53.1878163,23.3009518 53.0584055,23.3434907 C52.2878683,23.5967458 51.5030069,23.8504955 50.7048094,24.1047399 C50.6801127,24.1131487 50.654922,24.1166112 50.6302253,24.1166112 Z M40.2981109,23.1238711 C40.2556326,23.1238711 40.2126603,23.112989 40.1736395,23.089741 C40.0560832,23.0204916 40.0165685,22.8691321 40.0857192,22.751408 C40.5124783,22.0223104 40.8547747,21.2838146 41.1017418,20.5571901 C41.1457019,20.4280894 41.2864731,20.3578507 41.414896,20.4028628 C41.5443068,20.4468857 41.6129636,20.5873631 41.5690035,20.7164638 C41.3111698,21.4747452 40.9550433,22.2434139 40.5114905,23.0016953 C40.4655546,23.0803428 40.3825737,23.1238711 40.2981109,23.1238711 Z M30.1917244,22.639125 C30.1023224,22.639125 30.0168718,22.5906504 29.9724177,22.5060672 C29.5743068,21.7423448 29.332773,20.9182765 29.2527556,20.0571103 C29.2404073,19.9210846 29.340182,19.8008873 29.4760139,19.7880267 C29.6133276,19.7756608 29.7318718,19.8755778 29.744714,20.0116035 C29.8183102,20.807972 30.0425563,21.5707051 30.4105373,22.277544 C30.4732669,22.3987305 30.4268371,22.5481115 30.3058232,22.6109306 C30.2687782,22.6302215 30.2297574,22.639125 30.1917244,22.639125 Z M55.3260572,22.5738327 C55.2233189,22.5738327 55.1270017,22.509035 55.0919324,22.4056555 C55.0484662,22.2760601 55.117617,22.1360773 55.2465338,22.0920544 C56.0452253,21.8219816 56.8246534,21.5538874 57.5818544,21.2902449 C57.7097834,21.2452328 57.8515425,21.3134929 57.8959965,21.4425937 C57.9409445,21.5716944 57.8727816,21.7121718 57.7438648,21.757184 C56.9856759,22.0213211 56.204766,22.28991 55.4045927,22.5604774 C55.3789081,22.5698756 55.3522357,22.5738327 55.3260572,22.5738327 Z M59.9937348,20.9489441 C59.8919844,20.9489441 59.797149,20.886125 59.7610919,20.784724 C59.715156,20.6561179 59.7818371,20.5146512 59.9107539,20.4686498 C60.7178423,20.1802753 61.492825,19.8988258 62.2322444,19.6267745 C62.3611612,19.5792891 62.5019324,19.6455708 62.5493501,19.7736822 C62.5962738,19.9017937 62.5305806,20.0442497 62.4026516,20.0912403 C61.6617504,20.3632917 60.885286,20.6452358 60.0772097,20.9345996 C60.0495494,20.9444923 60.0213951,20.9489441 59.9937348,20.9489441 Z M64.6332582,19.2444187 C64.5334835,19.2444187 64.4391421,19.1830834 64.4020971,19.0841557 C64.3536915,18.9565389 64.4183969,18.8135882 64.5463258,18.7656083 C65.3805806,18.4505233 66.1521057,18.1552239 66.8529983,17.8836672 C66.9804333,17.8342033 67.1231802,17.8975171 67.1725737,18.0251339 C67.2219671,18.1527507 67.1587435,18.2957014 67.0313085,18.3451652 C66.3289341,18.6172166 65.5559272,18.9130106 64.7201906,19.2285902 C64.6915425,19.2394723 64.6624003,19.2444187 64.6332582,19.2444187 Z M41.8154766,18.4678357 C41.8115251,18.4678357 41.8080676,18.4678357 41.8041161,18.4678357 C41.6677903,18.4614054 41.5625823,18.3461545 41.5685095,18.2096342 C41.5729549,18.1062547 41.5754246,18.0043591 41.5754246,17.9029581 C41.5754246,17.1654516 41.4509532,16.4892803 41.204974,15.8927459 C41.1531109,15.766613 41.2128769,15.6216838 41.3388302,15.5697467 C41.4642894,15.5183043 41.6095061,15.5776609 41.6613692,15.7037938 C41.932539,16.3606742 42.0698527,17.1006539 42.0698527,17.9029581 C42.0698527,18.011284 42.067383,18.1210939 42.0624437,18.231893 C42.0560225,18.3639615 41.9463692,18.4678357 41.8154766,18.4678357 Z M29.7417504,17.8356872 C29.7185355,17.8356872 29.6943328,17.8322248 29.6706239,17.8252998 C29.5402253,17.7862234 29.4656412,17.6482191 29.505156,17.5171398 C29.7540988,16.6831787 30.1551733,15.9239081 30.6960312,15.2596082 C30.7819757,15.1537555 30.937565,15.1374324 31.0437608,15.2244888 C31.1494627,15.310556 31.1652686,15.4663672 31.0793241,15.5722199 C30.5794627,16.1860667 30.2090121,16.8879592 29.9783449,17.6591012 C29.9462392,17.7664378 29.8484402,17.8356872 29.7417504,17.8356872 Z M69.2436395,17.4567939 C69.1458406,17.4567939 69.0529809,17.3979319 69.0144541,17.3009827 C68.9635789,17.1743551 69.0253206,17.0304152 69.1522617,16.9799621 C70.620234,16.3933204 71.4381889,16.0475678 71.4396707,16.0470732 C71.56513,15.9936522 71.7098527,16.0525142 71.7631976,16.1786471 C71.8160485,16.3042854 71.7572704,16.4497092 71.6318111,16.5026356 C71.6318111,16.5026356 70.8099047,16.849872 69.3350173,17.4394815 C69.3048873,17.4513529 69.2742634,17.4567939 69.2436395,17.4567939 Z M39.9004939,14.1535957 C39.8530763,14.1535957 39.8051646,14.1397458 39.7626863,14.1115514 C39.157617,13.7029797 38.4181976,13.4408212 37.5651733,13.3320006 C37.4298354,13.3146883 37.3345061,13.1905339 37.3512998,13.0550029 C37.3685875,12.9199665 37.4940468,12.8284583 37.6279029,12.8408243 C38.5584749,12.9595376 39.3695147,13.2493959 40.0387955,13.7010012 C40.1519064,13.7771756 40.1815425,13.9310083 40.1054766,14.0442805 C40.0580589,14.1155085 39.9800173,14.1535957 39.9004939,14.1535957 Z M32.7878423,14.1110568 C32.6989341,14.1110568 32.6129896,14.0630768 32.5690295,13.9784936 C32.5058059,13.8573071 32.5522357,13.7079261 32.6727556,13.6446124 C33.2546101,13.3389256 33.8912912,13.1183166 34.5655113,12.9882266 C34.7467851,12.9536019 34.9250953,12.9229343 35.0994541,12.8972131 C35.2333102,12.8779222 35.3597574,12.9704196 35.3800087,13.105456 C35.40026,13.2404924 35.3069064,13.3661307 35.1720624,13.3864109 C35.0041248,13.4111428 34.8332236,13.4403265 34.6588648,13.473962 C34.0320624,13.5946538 33.4413172,13.7994343 32.902435,14.0823677 C32.8658839,14.1021533 32.8263692,14.1110568 32.7878423,14.1110568 Z" id="Shape" fill="#DAE7FF"></path>
                        <g id="Group" transform="translate(62.729636, 0.000000)">
                            <polygon id="Path" fill="#FFE994" points="0.295866551 6.53566297 7.59028596 10.1880762 29.4735442 0.448142788"></polygon>
                            <polygon id="Path" fill="#FFE270" points="8.80585789 16.2751017 7.59028596 10.1880762 29.4735442 0.448142788"></polygon>
                            <polygon id="Path" fill="#FFD94A" points="8.80585789 16.2751017 11.2374957 11.4053823 17.3163432 10.1880762"></polygon>
                            <polygon id="Path" fill="#FFE994" points="11.2374957 11.4053823 17.3163432 13.8399947 29.4735442 0.448142788"></polygon>
                        </g>
                    </g>
                    <g id="woman_on_ladder" transform="translate(157.601156, 24.161850)" fill-rule="nonzero">
                        <path d="M27.7862652,12.4040582 C27.7862652,12.4040582 26.6670104,9.70778185 26.3790468,9.17950757 C26.0910832,8.65123329 27.3120884,4.45719057 26.7178856,4.37062878 C26.1236828,4.28406698 25.6144367,6.9358258 25.6144367,6.9358258 C25.6144367,6.9358258 24.2161092,2.56173455 23.6436395,2.37822354 C23.0711698,2.19471253 21.3404246,5.18876142 21.5612132,6.67564577 C21.7820017,8.16253012 23.5680676,10.5976371 24.1252253,11.2906261 C24.682383,11.9836151 25.6065338,14.5235856 25.6065338,14.5235856 L27.7862652,12.4040582 Z" id="Path" fill="#F1B282"></path>
                        <path d="M27.0063432,10.1682906 C27.0063432,10.1682906 34.1268977,26.4681243 39.6115425,31.2488086 L32.8525477,32.4478132 C32.8525477,32.4478132 26.6684922,20.8534788 24.0738562,11.6601213 L27.0063432,10.1682906 Z" id="Path" fill="#1277D7"></path>
                        <path d="M22.5209272,0.722667343 C14.9499047,-2.34013635 4.77090988,7.91718925 0.224246101,14.801078 C6.05365685,18.6622287 14.5394454,24.2833045 20.3673744,28.143466 C27.674636,17.0798791 29.7185355,3.63460619 22.5209272,0.722667343 Z" id="Path" fill="#355AA2"></path>
                        <path d="M36.4543154,98.2095521 C36.4543154,98.2095521 33.5005893,98.7056749 32.3334229,99.5910784 C31.769844,100.018446 32.2119151,101.303023 36.3678769,101.108136 C40.5243328,100.913248 40.8384749,100.318198 40.357383,98.6532432 C39.8767851,96.9882888 37.0376516,98.2624785 36.4543154,98.2095521 Z" id="Path" fill="#102B5E"></path>
                        <g id="Group" transform="translate(7.902946, 102.884878)" fill="#C3D3F3">
                            <path d="M0.888093588,66.9528293 C1.52872617,67.1793739 2.23110052,66.8430195 2.45732236,66.2019675 L25.2237348,1.67534175 C25.4499567,1.03379517 25.1140815,0.330418744 24.4739428,0.103874156 C23.8333102,-0.122670432 23.1309359,0.213683978 22.904714,0.854735913 L0.13830156,65.3813617 C-0.0879202773,66.0229083 0.247954939,66.7262847 0.888093588,66.9528293 Z" id="Path"></path>
                            <path d="M17.7485355,66.9528293 C18.3891681,67.1793739 19.0915425,66.8430195 19.3177643,66.2019675 L42.0836828,1.67534175 C42.3099047,1.03379517 41.9740295,0.330418744 41.3338908,0.103874156 C40.6932582,-0.122670432 39.9908839,0.213683978 39.764662,0.854735913 L16.9987435,65.3813617 C16.7725217,66.0229083 17.1079029,66.7262847 17.7485355,66.9528293 Z" id="Path"></path>
                            <polygon id="Rectangle" transform="translate(30.204666, 7.543242) rotate(-180.000000) translate(-30.204666, -7.543242) " points="21.2521092 6.43030489 39.1572218 6.43030489 39.1572218 8.65617967 21.2521092 8.65617967"></polygon>
                            <polygon id="Rectangle" transform="translate(25.512291, 21.022151) rotate(-180.000000) translate(-25.512291, -21.022151) " points="16.5597348 19.9092132 34.4648475 19.9092132 34.4648475 22.135088 16.5597348 22.135088"></polygon>
                            <polygon id="Rectangle" transform="translate(20.819917, 34.501059) rotate(-180.000000) translate(-20.819917, -34.501059) " points="11.8673605 33.3881216 29.7724731 33.3881216 29.7724731 35.6139964 11.8673605 35.6139964"></polygon>
                            <polygon id="Rectangle" transform="translate(16.127542, 47.979967) rotate(-180.000000) translate(-16.127542, -47.979967) " points="7.17498614 46.86703 25.0800988 46.86703 25.0800988 49.0929047 7.17498614 49.0929047"></polygon>
                            <polygon id="Rectangle" transform="translate(11.435168, 61.458876) rotate(-180.000000) translate(-11.435168, -61.458876) " points="2.48261179 60.3459383 20.3877244 60.3459383 20.3877244 62.5718131 2.48261179 62.5718131"></polygon>
                        </g>
                        <g id="Group" transform="translate(40.502600, 102.884878)" fill="#DAE7FF">
                            <path d="M41.5981456,66.9528293 C40.957513,67.1793739 40.2551386,66.8430195 40.0289168,66.2019675 L17.2629983,1.67534175 C17.0367764,1.03379517 17.3726516,0.330418744 18.0127903,0.103874156 C18.6534229,-0.122670432 19.3557972,0.213683978 19.5820191,0.854735913 L42.3484315,65.3813617 C42.5741594,66.0229083 42.2387782,66.7262847 41.5981456,66.9528293 Z" id="Path"></path>
                            <path d="M24.7377036,66.9528293 C24.0970711,67.1793739 23.3946967,66.8430195 23.1684749,66.2019675 L0.402062392,1.67534175 C0.175840555,1.03379517 0.511715771,0.330418744 1.15185442,0.103874156 C1.792487,-0.122670432 2.49486135,0.213683978 2.72108319,0.854735913 L25.4874957,65.3813617 C25.7142114,66.0229083 25.3783362,66.7262847 24.7377036,66.9528293 Z" id="Path"></path>
                            <rect id="Rectangle" x="3.32911612" y="6.4303049" width="17.9051127" height="2.22587477"></rect>
                            <rect id="Rectangle" x="8.02149047" y="19.9092133" width="17.9051127" height="2.22587477"></rect>
                            <rect id="Rectangle" x="12.7138648" y="33.3881216" width="17.9051127" height="2.22587477"></rect>
                            <rect id="Rectangle" x="17.4062392" y="46.86703" width="17.9051127" height="2.22587477"></rect>
                            <rect id="Rectangle" x="22.0986135" y="60.3459383" width="17.9051127" height="2.22587477"></rect>
                        </g>
                        <path d="M61.4567678,104.773904 L30.2411179,104.773904 C29.1090208,104.773904 28.1907972,103.854865 28.1907972,102.720658 C28.1907972,101.586946 29.1085269,100.667413 30.2411179,100.667413 L61.4567678,100.667413 C62.5888648,100.667413 63.5070884,101.586451 63.5070884,102.720658 C63.5070884,103.854865 62.5893588,104.773904 61.4567678,104.773904 Z" id="Path" fill="#AEC1E8"></path>
                        <g id="Group" transform="translate(35.069324, 11.376693)">
                            <path d="M3.95394281,2.83180735 C1.79298094,2.87879804 2.08884749,6.12511274 1.63146447,6.59897675 C0.815485269,7.44431452 0.283024263,8.37225698 0.20745234,8.93614526 C0.0923656846,9.79731148 1.18593588,8.93614526 0.727564991,11.4686961 C0.269194107,14.001247 3.54792894,13.6273 3.66894281,14.6630737 C3.78995667,15.6988475 2.42521664,20.5275118 2.42521664,20.5275118 L8.53518198,20.4043467 C8.53518198,20.4043467 8.07681109,16.2859838 8.40181976,11.5987861 C8.72682842,6.91158849 11.4291421,2.66956581 3.95394281,2.83180735 Z" id="Path" fill="#F1B282"></path>
                            <path d="M15.4616205,0.275513833 C15.4616205,0.275513833 14.1423224,3.42438468 14.0529203,4.76089882 C13.9635182,6.09741296 11.1871144,4.37606981 11.1871144,4.37606981 C11.1871144,4.37606981 11.7872444,0.231490976 15.4616205,0.275513833 Z" id="Path" fill="#03193F"></path>
                            <path d="M8.45071924,14.7516141 C7.87973137,15.2482315 7.80613518,12.1928474 6.97138648,11.7209619 C6.13663778,11.2490765 4.93785962,10.818246 5.04701906,10.338941 C5.15617851,9.85963597 6.32334489,9.521303 6.49474003,8.91537043 C6.66564125,8.30894321 2.19504333,7.16929533 2.7862825,3.42784715 C3.37752166,-0.313601024 13.289792,0.0741958258 12.9796014,5.741273 C12.6689168,11.4078555 10.3306326,13.1163381 8.45071924,14.7516141 Z" id="Path" fill="#0B224E"></path>
                            <path d="M20.1895581,7.20392005 C19.6457366,12.0761126 11.9616031,13.5827825 12.3834229,6.62717116 C12.8047487,-0.328440189 20.8613085,1.18070291 20.1895581,7.20392005 Z" id="Path" fill="#0B224E"></path>
                        </g>
                        <path d="M19.3044281,19.1074037 C19.3044281,19.1074037 17.7080329,16.7089 17.3084402,16.2592733 C16.9088475,15.8096466 16.6599047,11.5626775 16.0612565,11.612636 C15.4626083,11.6625945 15.562383,14.3608494 15.562383,14.3608494 C15.562383,14.3608494 13.2171837,10.4136315 12.6185355,10.3636729 C12.0198873,10.3137144 10.7223224,14.2109738 11.2715771,15.6098125 C11.8208319,17.0086511 14.3196447,18.3530795 15.0180676,18.9031179 C15.7164905,19.4526616 17.4630416,21.5514142 17.4630416,21.5514142 L19.3044281,19.1074037 Z" id="Path" fill="#F1B282"></path>
                        <polygon id="Path" fill="#F1B282" points="69.0589081 84.7558704 71.3487868 86.95454 69.2485789 89.6636769 66.4479723 87.1583312"></polygon>
                        <path d="M69.3765078,84.8612284 C67.8067851,83.3075678 59.5911785,75.2375352 54.4280849,71.3744059 C51.8033189,64.6478123 46.1971664,51.6353484 46.1971664,51.6353484 C34.8213692,47.3384208 37.9148787,58.6305308 38.4137522,60.1292865 C38.9126256,61.6280422 47.9649567,75.6332463 49.0476603,76.7174946 C50.8633622,78.535787 64.6979636,86.6171963 66.9216551,87.9111715 C67.0955199,88.0120778 67.3158146,87.9725067 67.4427556,87.8166955 L69.4056499,85.4102775 C69.5395061,85.2475414 69.5261698,85.0096201 69.3765078,84.8612284 Z" id="Path" fill="#0B224E"></path>
                        <rect id="Rectangle" fill="#F1B282" x="39.3201213" y="92.7813855" width="3.67585789" height="4.04713498"></rect>
                        <path d="M47.9936049,50.6356833 C44.3014471,47.5377602 38.3139775,50.3359321 37.0169064,53.3883484 C35.7198354,56.4407647 36.7358579,70.7214826 36.6360832,72.7579107 C36.5363085,74.7938442 39.1309445,95.0235834 39.1309445,95.0235834 L43.185156,95.0235834 C43.185156,95.0235834 44.4555546,83.080034 43.9710052,74.6256669 C45.622721,70.9040043 48.4737088,64.1348718 48.9034315,60.8292005 C49.5139341,56.1316154 47.9936049,50.6356833 47.9936049,50.6356833 Z" id="Path" fill="#102B5E"></path>
                        <path d="M45.8978423,42.3415792 C45.8978423,40.0345837 46.2253206,30.4331492 43.9018544,28.3512143 C42.0056412,26.6526245 36.2182149,29.6501359 32.925156,28.8507995 C29.6320971,28.0514632 18.7457886,17.8584406 18.7457886,17.8584406 L16.0479203,20.3524097 C21.2317591,27.1996951 29.2008925,32.7381662 33.6818631,35.5343595 C32.7582062,36.6591682 31.7787348,38.1124172 31.8572704,39.1546212 C32.0039688,41.0931108 35.3735875,42.0987116 35.445208,44.7554168 C35.5168284,47.412122 33.6156759,53.7964255 35.4195234,55.4554441 C37.2233709,57.1144628 47.9782929,57.5720037 50.1738302,55.7730023 C52.3698614,53.9744954 45.8978423,47.4304236 45.8978423,42.3415792 Z" id="Path" fill="#1B90FB"></path>
                        <path d="M44.3167591,46.6741208 C45.2374523,49.4658624 48.1931542,51.6328752 50.1160399,52.7962657 C48.8940468,49.9397264 45.899818,45.8040511 45.899818,42.3400953 C45.899818,41.6164387 45.929948,40.1730826 45.9042634,38.471525 C45.1811438,39.5869355 43.1594714,43.1498191 44.3167591,46.6741208 Z" id="Path" fill="#1277D7"></path>
                        <path d="M43.0843934,96.3828509 C43.4528683,96.3502047 43.8238128,96.9482231 43.7596014,98.3950417 C43.6953899,99.8418603 43.9319844,100.616465 42.7914905,100.72578 C42.1108492,100.791072 35.6245061,100.669391 33.5203466,100.615475 C33.3820451,100.612013 33.2526343,100.538806 33.1661958,100.414652 C33.0797574,100.290992 33.0437002,100.127762 33.0683969,99.9684878 C33.1780503,99.2651114 33.6739601,98.2021326 35.6378423,97.9938896 C37.08013,97.7198597 38.4868544,96.2750196 39.1245234,96.2577073 C39.7621924,96.2399003 40.0318804,96.8967807 41.0721057,96.8290151 C42.112331,96.760755 42.4472184,96.4392397 43.0843934,96.3828509 Z" id="Path" fill="#0B224E"></path>
                        <path d="M70.3090555,86.1220628 C70.5263865,85.8218171 71.220364,85.9341001 72.2684922,86.9317866 C73.3166205,87.9294732 74.0555459,88.2589026 73.3897227,89.1927807 C72.9921057,89.7502387 68.6454853,94.5724728 67.2239428,96.1276173 C67.1305893,96.2300075 66.990312,96.2794714 66.840156,96.2636429 C66.69,96.2478145 66.5437955,96.1681776 66.4400693,96.0450126 C65.9816984,95.5009099 65.5060399,94.4285329 66.637643,92.8076014 C67.3775563,91.5373688 67.2115945,89.526662 67.6166205,89.033507 C68.0216464,88.5398575 68.6933969,88.7668967 69.3246447,87.9363981 C69.9563865,87.1049102 69.9336655,86.640939 70.3090555,86.1220628 Z" id="Path" fill="#0B224E"></path>
                    </g>
                    <g id="man_10_" transform="translate(65.346821, 79.624277)" fill-rule="nonzero">
                        <path d="M22.3678076,20.7664224 C22.9822617,22.0880973 22.6809619,22.8077968 22.8316118,23.3647602 C22.9822617,23.9217235 23.5591768,25.0465322 23.5838735,25.5797529 C23.6080763,26.1129736 23.0425217,26.1856855 22.9205199,26.8831262 C22.7985182,27.5800724 23.1190815,28.4882293 22.694792,29.2188108 C22.2705026,29.9493924 20.6232322,29.7807206 20.7200433,30.4855809 C20.8173484,31.1904412 21.855104,33.8070807 21.855104,33.8070807 L15.0817851,33.9159012 C15.0817851,33.9159012 15.3519671,30.1071822 15.007695,28.5327468 C14.6634229,26.9583113 13.8998007,21.174994 15.3060312,20.4735962 C16.7122617,19.7721983 21.7158146,19.363132 22.3678076,20.7664224 Z" id="Path" fill="#F1B282"></path>
                        <path d="M18.6494714,17.7674271 C13.0146707,17.9435185 11.0374523,19.3651105 11.1016638,23.7748158 C11.1401906,26.4028319 12.5884055,30.0409006 14.4895581,30.0285346 C15.8607192,30.0196311 18.5635269,29.8672824 19.0372097,29.1169152 C20.1614038,27.3362154 19.1987262,24.8778604 19.9519757,24.0295548 C21.022825,22.8236253 23.4559445,23.444397 23.1215511,19.2899254 C22.7866638,15.1354538 20.5249393,17.7090597 18.6494714,17.7674271 Z" id="Path" fill="#0B224E"></path>
                        <polygon id="Path" fill="#F1B282" points="24.7703033 108.55245 24.7703033 111.058291 28.5493934 111.058291 28.5503813 107.486009"></polygon>
                        <polygon id="Path" fill="#F1B282" points="11.7403206 108.657314 11.7403206 111.618716 7.89701906 111.618716 7.89701906 107.983616"></polygon>
                        <path d="M9.49390815,63.0026435 C9.49390815,63.0026435 8.33464471,78.7638155 8.12126516,83.3135035 C7.90837955,87.8631915 7.89652513,107.983616 7.89652513,107.983616 L11.9072704,108.01923 C11.9072704,108.01923 14.767149,95.0433689 14.6130416,87.6000437 C15.5357106,84.6144037 20.4078769,67.1971809 20.4790035,63.6427062 C20.55013,60.0882315 11.2686135,61.2254062 9.49390815,63.0026435 Z" id="Path" fill="#0B224E"></path>
                        <path d="M27.3738302,63.0026435 C27.3738302,63.0026435 29.0359185,78.9774994 29.2492981,83.5266928 C29.4621837,88.0763809 28.6516378,107.983616 28.6516378,107.983616 L24.5020971,108.26556 C24.5020971,108.26556 22.4167071,97.4601743 22.237409,87.4936963 C21.31474,84.5080563 15.6196794,66.9632167 15.5485529,63.408742 C15.4774263,59.8547619 25.5991248,61.2254062 27.3738302,63.0026435 Z" id="Path" fill="#102B5E"></path>
                        <path d="M8.45071924,43.879906 C8.45071924,43.879906 5.30040728,47.7954671 5.93955806,50.8879491 C6.5782149,53.9804311 10.5272184,60.2479998 11.4854506,61.6339778 C12.4436828,63.0199559 9.90486135,64.5132705 9.90486135,64.5132705 C9.90486135,64.5132705 1.81668977,53.9923024 0.538882149,50.7934731 C-0.738925477,47.5946437 4.99021664,39.2416776 4.99021664,39.2416776 L8.45071924,43.879906 Z" id="Path" fill="#F1B282"></path>
                        <path d="M28.8008059,30.6755222 C28.8008059,30.6755222 32.3467591,30.2343044 34.2854506,24.1992159 C36.2241421,18.1641274 36.7882149,10.0604593 36.082383,8.2718453 C34.9641161,5.43904867 36.1673397,2.65373737 36.4814818,1.49084146 C36.720052,0.60890041 37.4283536,-0.603459383 37.6259272,0.346741826 C37.7444714,0.917060407 37.6535875,2.39603053 37.4308232,3.4857199 C37.2322617,4.45570666 40.2704506,4.55216123 39.8441854,6.04498125 C39.4184142,7.53780126 38.992149,7.44184133 38.9215165,8.502347 C38.8508839,9.56285267 39.4184142,21.6478688 38.6375043,24.4910528 C37.8565945,27.3347315 34.875208,34.7276036 32.6747314,36.0784623 C30.4742548,37.4293209 28.8008059,30.6755222 28.8008059,30.6755222 Z" id="Path" fill="#F1B282"></path>
                        <path d="M19.6842634,32.9503662 C18.0340295,32.9330539 11.0591854,32.4171456 7.59868284,35.6159749 C4.13818024,38.8148043 2.9137175,41.2672237 2.70083189,41.9072863 C2.48794627,42.547349 6.960026,46.0127887 7.86491334,45.319305 C8.76980069,44.626316 9.40895147,43.3466853 10.4738735,43.3466853 C11.5387955,43.3466853 11.0063345,49.1581971 10.5805633,52.1438371 C10.154792,55.1294771 7.59917678,63.5536712 9.40944541,64.3530075 C11.219714,65.1523439 15.9046794,64.0863972 18.6198354,64.7793862 C21.3349913,65.4723752 25.8604159,66.0055959 27.3511092,64.2995866 C28.8418024,62.5935772 26.2861872,56.1420028 26.2328423,51.9835741 C26.1794974,47.8251454 26.3395321,41.32015 28.8418024,39.6675617 C31.3440728,38.0149733 34.3788042,37.4817526 34.485,35.9355116 C34.5916898,34.3892706 30.1191161,29.4844319 29.054688,30.0176526 C27.989766,30.5508732 26.0574957,32.7901033 24.0506412,32.8435242 C22.0437868,32.8969452 20.8558752,32.9627322 19.6842634,32.9503662 Z" id="Path" fill="#FFCB01"></path>
                        <path d="M29.5812218,108.1696 C29.2591768,109.16976 28.0332322,109.013454 27.2562738,109.17619 C26.4793154,109.338926 23.7720624,109.716335 23.6742634,108.976356 C23.5764645,108.236376 23.9577816,107.695736 23.9074003,107.129374 C23.8570191,106.563013 23.2356499,105.842324 23.8639341,105.416935 C24.4922184,104.991545 25.537383,105.389235 26.2970537,105.41001 C26.8522357,105.425344 28.9010745,104.551317 29.1500173,104.90251 C29.3989601,105.253704 29.0591334,105.926413 29.145078,106.362189 C29.2735009,107.008682 29.8311525,107.393511 29.5812218,108.1696 Z" id="Path" fill="#355AA2"></path>
                        <path d="M7.18377816,108.701831 C7.55768631,109.683689 8.77375217,109.46308 9.55811958,109.585256 C10.342487,109.707432 13.0660399,109.941891 13.124818,109.197954 C13.1835962,108.454017 12.7751127,107.933657 12.7958579,107.365317 C12.8166031,106.796977 13.3994454,106.044631 12.7494281,105.653372 C12.0994107,105.262113 11.0764731,105.713223 10.3192721,105.774064 C9.76557192,105.818581 7.67376083,105.05288 7.44358752,105.416935 C7.21341421,105.780494 7.58781629,106.434901 7.52459272,106.874635 C7.43074523,107.526075 6.89383882,107.939593 7.18377816,108.701831 Z" id="Path" fill="#355AA2"></path>
                        <path d="M24.2442634,110.576018 C24.7703033,110.042797 25.6840815,110.896049 26.6146534,110.896049 C27.5452253,110.896049 28.0633622,110.256481 28.5493934,110.220867 C29.0359185,110.185253 29.2843674,111.322428 30.3137262,111.844272 C30.9247227,112.153916 32.3724437,112.307254 32.3724437,114.082018 C32.3724437,114.521257 24.5016031,114.409963 24.2442634,114.266518 C23.7542808,113.991994 23.7182236,111.109238 24.2442634,110.576018 Z" id="Path" fill="#102B5E"></path>
                        <path d="M7.42037262,110.576018 C7.94641248,110.042797 8.86019064,110.896049 9.79076256,110.896049 C10.7213345,110.896049 11.2394714,110.256481 11.7255026,110.220867 C12.2120277,110.185253 12.4604766,111.322428 13.4898354,111.844272 C14.1008319,112.153916 15.5485529,112.307254 15.5485529,114.082018 C15.5485529,114.521257 7.67771231,114.409963 7.42037262,114.266518 C6.92989601,113.991994 6.89433276,111.109238 7.42037262,110.576018 Z" id="Path" fill="#102B5E"></path>
                    </g>
                    <g id="plant_30_" transform="translate(244.913295, 96.647399)" fill-rule="nonzero">
                        <path d="M3.12660312,60.6684428 C0.670762565,54.9152985 -2.99274697,46.7641451 4.49480069,41.9508145 C11.9823484,37.137484 5.14679376,34.287375 4.90377816,27.3104942 C4.66076256,20.334108 12.3034055,18.5410422 12.074714,15.2328977 C11.8460225,11.9247531 11.4666811,6.07515422 12.1720191,3.57920664 C13.3525217,-0.597523717 22.1875217,-2.49396902 23.0889515,9.266564 C23.6554939,16.6564683 24.4171404,21.1186052 28.3528076,26.3899713 C32.2884749,31.6613374 23.6189428,37.2349279 23.7794714,41.4784345 C23.94,45.721941 28.2115425,45.0932551 27.7442808,54.0872731 C27.2770191,63.0812911 21.3740121,69.8820805 15.7614385,69.4809284 C11.9497487,69.2078877 5.36857019,65.9200234 3.12660312,60.6684428 Z" id="Path" fill="#DCEEFD"></path>
                        <path d="M17.5889948,72.5224626 C17.7618718,72.5224626 17.9169671,72.4017707 17.9540121,72.2256793 C18.0878683,71.5880898 17.6946967,70.3643534 16.8638995,67.8778039 C15.4631023,63.686729 13.3475823,57.3528787 13.8123744,51.5354313 C14.1037955,47.8894484 15.0037435,44.0025764 15.8745494,40.2448052 C17.1197574,34.8685757 18.2958146,29.7906133 17.6092461,25.8893968 C16.8387088,21.5088753 17.3563518,15.8358624 17.6660485,12.4461025 C17.8473224,10.4626007 17.9293154,9.49113004 17.8241075,9.07612805 C17.7732322,8.87530468 17.5697314,8.75263425 17.370182,8.80605524 C17.1701386,8.85700304 17.0496187,9.06029961 17.1004939,9.26062834 C17.1790295,9.56977761 17.0599913,10.8711724 16.9226776,12.3778423 C16.6095234,15.8047002 16.0854593,21.5405321 16.8742721,26.0199815 C17.534662,29.7708278 16.3749047,34.7765728 15.1474783,40.0761333 C14.2707452,43.8606151 13.3638821,47.7746922 13.0680156,51.4760747 C12.5913692,57.4463654 14.7365251,63.8672722 16.1555979,68.1157252 C16.7814125,69.9879332 17.3217764,71.6054022 17.2234835,72.071352 C17.1810052,72.2736593 17.3104159,72.4725041 17.5119411,72.5145484 C17.5371317,72.5194948 17.5633102,72.5224626 17.5889948,72.5224626 Z" id="Path" fill="#D0E7FE"></path>
                        <path d="M18.4188042,33.487544 C20.3031629,33.487544 21.6916118,31.8141808 22.2339515,30.7378467 C22.3268111,30.5538411 22.2532149,30.3287804 22.0689775,30.2357883 C21.8857279,30.1408176 21.66,30.2160027 21.5676343,30.4000084 C21.5014471,30.5291091 19.9223397,33.5716326 17.3716638,32.5205251 C17.1795234,32.4403936 16.9626863,32.5323964 16.8841508,32.7238216 C16.8056153,32.9152469 16.8964991,33.1333826 17.0871577,33.2120302 C17.5529376,33.4039501 17.9984662,33.487544 18.4188042,33.487544 Z" id="Path" fill="#D0E7FE"></path>
                        <path d="M17.3968544,27.2991175 C17.5707192,27.2991175 17.7268024,27.1764471 17.7623657,26.999861 C17.8033622,26.7975537 17.6724697,26.6001928 17.4704506,26.5586432 C17.4309359,26.5507289 13.5071231,25.7142947 12.4120711,22.3289865 C12.3488475,22.1331095 12.1394194,22.0257728 11.9413518,22.088592 C11.74526,22.1519057 11.6380763,22.3631165 11.7012998,22.5599828 C12.9331716,26.3667233 17.1439601,27.2560839 17.3222704,27.2921926 C17.347461,27.2971389 17.3726516,27.2991175 17.3968544,27.2991175 Z" id="Path" fill="#D0E7FE"></path>
                        <path d="M13.4424177,51.8797 C13.664688,51.8797 18.7107192,51.824795 19.9420971,47.6248167 C19.9998873,47.4269611 19.8867764,47.2187182 19.6887088,47.1608454 C19.4886655,47.1029727 19.2831889,47.2172343 19.2253986,47.4141005 C18.1333102,51.1412042 13.6231976,51.1397202 13.4443934,51.131806 C13.2394107,51.1337846 13.0690035,51.2940476 13.0670277,51.5013012 C13.0645581,51.707071 13.2295321,51.8767321 13.4355026,51.8797 C13.4355026,51.8797 13.4379723,51.8797 13.4424177,51.8797 Z" id="Path" fill="#D0E7FE"></path>
                        <path d="M13.7506326,58.0394374 C13.8963432,58.0394374 14.0356326,57.9533703 14.0953986,57.8094303 C14.174922,57.619489 14.085026,57.400364 13.8948614,57.3207272 C13.8187955,57.2885757 6.29222704,54.0823267 6.12873484,49.3985915 C6.12132582,49.1928218 5.94350953,49.0399784 5.74247834,49.0375052 C5.5365078,49.0449248 5.37499133,49.2180484 5.38240035,49.4248074 C5.56219237,54.5878476 13.2784315,57.8727441 13.6064038,58.0102537 C13.6538215,58.0295446 13.702721,58.0394374 13.7506326,58.0394374 Z" id="Path" fill="#D0E7FE"></path>
                    </g>
                    <g id="plant_29_" transform="translate(224.595376, 121.358382)" fill-rule="nonzero">
                        <path d="M17.7850867,39.951979 C19.4091421,36.1477117 21.8313951,30.7576323 16.8801993,27.5746313 C11.9290035,24.3916304 16.4489948,22.5070564 16.6100173,17.89356 C16.7710399,13.2800635 11.7166118,12.0949089 11.8682496,9.9071213 C12.0193934,7.71982835 12.270312,3.85175264 11.8040381,2.20114283 C11.0231282,-0.560920443 5.18136915,-1.8148299 4.58519064,5.96188192 C4.21078856,10.848419 3.70697574,13.7989397 1.10443674,17.2846596 C-1.49810225,20.7703795 4.2344974,24.4559335 4.12879549,27.2620196 C4.02259965,30.0681057 1.19828423,29.6526091 1.50699307,35.5996519 C1.81570191,41.5466946 5.71926343,46.0439509 9.43068458,45.7788245 C11.9502426,45.598776 16.3022964,43.4248383 17.7850867,39.951979 Z" id="Path" fill="#8AE6B9"></path>
                        <path d="M8.2215338,47.7905207 C8.10743501,47.7905207 8.00469671,47.7108838 7.98,47.5946437 C7.89158579,47.1727168 8.15139515,46.3639823 8.70064991,44.7198028 C9.62677643,41.9483413 11.0260919,37.7602343 10.7183709,33.9129334 C10.5257366,31.5020637 9.93054593,28.9319203 9.35461872,26.4468548 C8.5312305,22.8913908 7.75328423,19.5337824 8.20770364,16.9542408 C8.71744367,14.0576358 8.37465338,10.3062948 8.17016464,8.06459163 C8.05013865,6.75330406 7.99580589,6.11076821 8.06594454,5.83624366 C8.09953206,5.70318581 8.23388215,5.62206504 8.3662565,5.65767904 C8.49863085,5.69131448 8.57815425,5.82585624 8.54456672,5.95792481 C8.49270364,6.16221065 8.57123917,7.02288223 8.66212305,8.01908485 C8.86908146,10.2850254 9.21582322,14.077916 8.69422877,17.0398134 C8.25759099,19.5204271 9.02417678,22.8300556 9.83620451,26.3345718 C10.4160832,28.8374443 11.0157192,31.4253947 11.2113172,33.8728677 C11.5264471,37.8205802 10.1078683,42.06656 9.16939341,44.8761086 C8.7554766,46.1141896 8.39836222,47.1835988 8.46306759,47.4917588 C8.49122184,47.6258059 8.40577123,47.7568852 8.27240901,47.7850796 C8.25561525,47.7885421 8.23832756,47.7905207 8.2215338,47.7905207 Z" id="Path" fill="#44D690"></path>
                        <path d="M7.67277296,21.9782875 C6.42707106,21.9782875 5.50884749,20.8717804 5.14975737,20.1599951 C5.0880156,20.038314 5.13691508,19.8894277 5.25891681,19.8280925 C5.38042461,19.7652734 5.52909879,19.8152319 5.59034662,19.936913 C5.63430676,20.0224855 6.67848354,22.0341817 8.36526863,21.3392141 C8.49220971,21.2862878 8.63594454,21.3471284 8.68780763,21.4732613 C8.73967071,21.5993942 8.67941075,21.7443233 8.55345754,21.7957658 C8.24524263,21.9233826 7.95085789,21.9782875 7.67277296,21.9782875 Z" id="Path" fill="#44D690"></path>
                        <path d="M8.34847487,17.8861404 C8.23338821,17.8861404 8.13064991,17.8050196 8.10694107,17.6882849 C8.0797747,17.5542377 8.16621317,17.4241477 8.30006932,17.396448 C8.32624783,17.3910069 10.9208839,16.8380007 11.6449913,14.59976 C11.6869757,14.4701646 11.8252773,14.3994312 11.9561698,14.4409809 C12.0860745,14.4830252 12.1567071,14.6225133 12.1147227,14.7526034 C11.3002253,17.2698204 8.51591854,17.857946 8.39786828,17.8816887 C8.38107452,17.8846565 8.3647747,17.8861404 8.34847487,17.8861404 Z" id="Path" fill="#44D690"></path>
                        <path d="M10.9638562,34.1404673 C10.8166638,34.1404673 7.48013865,34.1043586 6.66564125,31.3269616 C6.62711438,31.1958823 6.70219237,31.0583727 6.83308492,31.0202855 C6.96545927,30.9821983 7.10129116,31.0573834 7.13981802,31.1879681 C7.86194974,33.6522587 10.8443241,33.6512695 10.9623744,33.6463231 C11.0977123,33.647807 11.2103293,33.7536597 11.2118111,33.8906747 C11.2132929,34.0267003 11.1046274,34.1389834 10.9683016,34.1409619 C10.9678076,34.1404673 10.9663258,34.1404673 10.9638562,34.1404673 Z" id="Path" fill="#44D690"></path>
                        <path d="M10.7593674,38.2133235 C10.6630503,38.2133235 10.5711785,38.15644 10.5316638,38.0609747 C10.4793068,37.9353365 10.5385789,37.7904073 10.6645321,37.7379756 C10.7149133,37.7167061 15.6917938,35.596684 15.7999653,32.4992556 C15.8049047,32.3632299 15.922461,32.2623236 16.0553293,32.2608397 C16.1916551,32.2657861 16.2983449,32.3800477 16.2934055,32.5170626 C16.1743674,35.9310599 11.0720277,38.1035137 10.8551906,38.1945272 C10.8235789,38.2068932 10.7914731,38.2133235 10.7593674,38.2133235 Z" id="Path" fill="#44D690"></path>
                    </g>
                    <g id="man_with_paper_1_" transform="translate(238.323699, 97.196532)">
                        <path d="M29.414766,2.57014341 C27.6459879,2.3599219 26.0861438,3.50451617 26.1039255,4.87961214 C26.1078769,5.17936328 26.2318544,5.71802497 26.0120537,6.40458368 C25.8653553,6.86410316 25.2316378,7.46360544 25.244974,8.08685037 C25.2583102,8.71009531 26.1878943,8.55824119 26.1207192,9.1161938 C26.0535442,9.67414641 25.6969237,10.8311066 25.9626603,11.2738084 C26.2279029,11.7165102 29.1159359,11.1595468 29.2033622,12.198783 C29.2907886,13.2385139 29.5417071,16.6094776 29.5417071,16.6094776 L35.2940641,16.0896121 C35.2940641,16.0896121 35.8240555,5.07054273 35.2940641,4.34490756 C34.4059705,3.13056921 30.8269237,2.73782597 29.414766,2.57014341 Z" id="Path" fill="#F1B282" fill-rule="nonzero"></path>
                        <path d="M39.855052,87.8473631 C39.855052,87.8473631 40.8646534,92.838269 39.6881023,93.7988576 L37.147799,93.9556581 C36.9161438,93.9700026 36.7170884,93.7934166 36.7027643,93.561431 L36.6785615,93.164236 C36.6785615,93.164236 35.5864731,94.1728046 34.7482669,94.224247 C33.9100607,94.2761841 29.6612392,94.537848 29.6612392,94.537848 C29.6612392,94.537848 28.6244714,94.7846728 28.5627296,93.780556 C28.4743154,92.3431355 31.9135789,91.9043909 33.345,90.6415779 C34.7764211,89.3787649 35.4615078,88.1189198 35.4615078,88.1189198 L39.855052,87.8473631 Z" id="Path" fill="#0B224E"></path>
                        <path d="M27.5269497,90.2780184 C27.5269497,90.2780184 28.3044021,95.3104739 27.0843847,96.2151683 L24.539636,96.2537502 C24.307487,96.2572126 24.1168284,96.0717231 24.1133709,95.8392428 L24.1074437,95.4415532 C24.1074437,95.4415532 22.9699133,96.3981847 22.1297314,96.4110453 C21.2895494,96.4239059 15.9145581,96.4951339 15.9145581,96.4951339 C15.9145581,96.4951339 14.8674177,96.6934841 14.8525997,95.6873887 C14.8308666,94.247495 19.4056846,93.9615938 20.8939081,92.7665464 C22.3821317,91.5714989 23.1255026,90.3447946 23.1255026,90.3447946 L27.5269497,90.2780184 Z" id="Path" fill="#0B224E"></path>
                        <path d="M31.9160485,42.8119808 C31.9160485,42.8119808 12.4105893,44.5402489 2.44151646,35.8657676 C1.85768631,35.3577735 1.52131716,34.6197723 1.52131716,33.8451679 L1.52131716,11.0428121 C1.52131716,10.6970595 1.72037262,10.3829639 2.03253899,10.2355615 C2.34470537,10.0881591 2.71318024,10.1356444 2.97941075,10.3557587 C13.6720971,19.2063315 31.9165425,16.833549 31.9165425,16.833549 L31.9165425,42.8119808 L31.9160485,42.8119808 Z" id="Path" fill="#224380" fill-rule="nonzero"></path>
                        <path d="M9.01775563,26.1332538 C9.01775563,26.1332538 7.60757366,26.0506491 5.72864818,24.9357331 C3.85021664,23.8208172 3.00558925,22.7059012 2.48597054,23.2262613 C1.96635182,23.7466214 2.70873484,24.7873415 2.70873484,24.7873415 C-0.425277296,23.4879253 -0.176334489,27.9490729 1.22446274,28.6895473 C1.96684575,29.0817959 3.08758232,28.8384336 4.15991334,28.6895473 C5.9010312,28.4481635 15.4008666,31.8903552 15.4008666,31.8903552 L17.4635355,26.9637524 L9.01775563,26.1332538 Z" id="Path" fill="#F1B282" fill-rule="nonzero"></path>
                        <path d="M41.7873224,46.0721453 L39.4169324,65.6865539 L40.6774523,88.0610471 C40.6907886,88.2945166 40.5213692,88.4988025 40.2892201,88.5284808 L34.1105979,89.3199029 C33.7618804,89.3644204 33.4393414,89.1314455 33.3711785,88.7861876 C32.7379549,85.5858743 29.8598007,70.7506663 29.9215425,65.779546 C29.9906932,60.1950735 30.3952253,45.3564029 33.1731109,43.9931783 C35.9509965,42.6299537 41.7759619,41.480413 41.7873224,46.0721453 Z" id="Path" fill="#0B224E" fill-rule="nonzero"></path>
                        <path d="M38.550078,45.27825 C37.3829116,51.0749226 31.0467244,67.2031165 29.6642028,69.3384724 L28.6536135,90.4170119 C28.6368198,90.7682054 28.3513258,91.0466871 28.0001386,91.0536121 L21.9306759,91.179745 C21.7513778,91.1837021 21.5780069,91.1149473 21.4495841,90.989309 C21.3211612,90.8636707 21.2490468,90.6915364 21.2485529,90.5119825 L21.2184229,67.2619786 C21.2184229,67.2619786 24.5801386,45.4939125 27.4064298,43.4629255 C30.232721,41.432433 39.1492201,42.3015135 38.550078,45.27825 Z" id="Path" fill="#102B5E" fill-rule="nonzero"></path>
                        <path d="M38.6636828,16.6465755 C34.3373137,13.6109769 33.8720277,23.8762167 35.077721,26.2460314 C35.7173657,27.5034033 37.5893761,29.0333213 39.2055286,30.1927547 C36.4335702,32.3478961 30.7434489,36.9247893 30.7434489,36.9247893 L32.0671924,42.0724957 C32.0671924,42.0724957 46.2065511,35.3815161 46.3176863,32.1999991 C46.4293154,29.0189767 42.990052,19.682174 38.6636828,16.6465755 Z" id="Path" fill="#1EAF69" fill-rule="nonzero"></path>
                        <path d="M41.0607452,33.8417054 C40.7268458,26.2598813 42.8285355,23.8960023 40.6018804,18.8299113 C39.6308059,16.6134347 36.8608232,14.7892066 35.7386049,14.936609 C32.790312,15.3333094 30.6836828,15.4005802 29.5703553,15.7394078 C25.9764905,16.3146728 23.2287348,24.6280678 20.0043328,26.0239386 C18.734922,26.5724931 16.6776863,26.5324273 14.5888388,26.3182487 L14.2104853,32.0580378 C17.1098787,32.682272 19.9154246,33.043853 21.1176603,32.7762534 C23.0770971,32.3434444 25.312643,30.9653806 27.1831716,29.5739615 C28.042617,34.6761611 24.8898354,41.7138825 25.2103986,44.424998 C25.5398527,47.2122879 29.7797834,45.2055381 33.2309012,45.0937497 C36.6820191,44.9819613 39.2430676,47.7697458 41.8041161,46.6548299 C44.3651646,45.539914 41.3946447,41.4235295 41.0607452,33.8417054 Z" id="Path" fill="#2CCD7F" fill-rule="nonzero"></path>
                        <path d="M25.0528336,11.2723245 C25.0523397,14.0427966 29.4621837,13.917653 30.450052,12.9125469 C31.7377383,11.6027432 30.7849393,8.42172087 32.0375563,8.31982527 C34.4351127,8.12493756 32.4005979,13.2662137 34.9404073,12.8922667 C37.4802166,12.5183197 41.0034489,1.06149495 32.5517418,0.189446675 C22.8651993,-0.809723779 23.1067331,4.18513921 28.5454419,5.59436526 C31.3613605,6.32395755 29.7140901,9.67266249 28.3187262,9.27348895 C26.7307279,8.81941049 25.0533276,9.1760451 25.0528336,11.2723245 Z" id="Path" fill="#0B224E" fill-rule="nonzero"></path>
                        <path d="M14.0282236,26.105554 C14.2391334,25.8389437 15.6982149,25.863181 15.809844,26.3286361 C15.9209792,26.7935966 15.1380936,32.0624895 14.6945407,32.3825208 C14.2509879,32.7030468 13.1969324,32.7831783 13.1302513,32.0367683 C13.0630763,31.2908529 13.8143501,26.3756268 14.0282236,26.105554 Z" id="Path" fill="#1EAF69" fill-rule="nonzero"></path>
                        <path d="M26.8142028,35.9869541 C27.2508406,33.8016397 27.5180589,31.5450973 27.1836655,29.5734669 C27.1836655,29.5734669 29.0897574,27.6023311 30.7419671,25.9344089 C30.7419671,25.9344089 31.5658492,31.9462494 26.8142028,35.9869541 Z" id="Path" fill="#1EAF69" fill-rule="nonzero"></path>
                    </g>
                </g>
            </g>
        </g>
    </g>
</svg>