<?xml version="1.0" encoding="UTF-8"?>
<svg width="355px" height="220px" viewBox="0 0 355 220" version="1.1" xmlns="http://www.w3.org/2000/svg" xmlns:xlink="http://www.w3.org/1999/xlink">
    <!-- Generator: Sketch 52.3 (67297) - http://www.bohemiancoding.com/sketch -->
    <title>分组 2</title>
    <desc>Created with Sketch.</desc>
    <defs>
        <linearGradient x1="50%" y1="0%" x2="50%" y2="100%" id="linearGradient-1">
            <stop stop-color="#FFFFFF" offset="0%"></stop>
            <stop stop-color="#FFFFFF" offset="50.7891681%"></stop>
            <stop stop-color="#CCE5D9" offset="100%"></stop>
        </linearGradient>
    </defs>
    <g id="页面设计-" stroke="none" stroke-width="1" fill="none" fill-rule="evenodd">
        <g id="码上参与-居民说事厅-楼宇说事-我要说事-发布成功" transform="translate(-10.000000, -98.000000)" fill-rule="nonzero">
            <g id="分组-2" transform="translate(10.000000, 98.000000)">
                <path d="M4,0 L351,0 C353.209139,-4.05812251e-16 355,1.790861 355,4 L355,220 L0,220 L0,4 C-2.705415e-16,1.790861 1.790861,4.05812251e-16 4,0 Z" id="矩形" fill="url(#linearGradient-1)" opacity="0.25"></path>
                <g id="分组-6" transform="translate(35.000000, 29.000000)">
                    <g id="bg_2_" transform="translate(0.000000, -0.000000)">
                        <g id="Group" fill="#F3F9FF">
                            <path d="M244.467581,5.57925884 C238.819355,5.57925884 233.748387,8.80678112 231.186774,13.5969609 C230.328387,13.366389 229.433226,13.2472279 228.51871,13.2472279 C225.614032,13.2472279 222.936774,14.4848565 221.049677,16.4984855 C219.434032,15.6522479 217.619516,15.1915884 215.750323,15.1915884 C210.201774,15.1915884 205.560968,19.1616879 204.515323,24.4134959 C200.510806,24.9545648 197.413548,28.3986116 197.413548,32.5537498 C197.413548,37.0828408 201.094355,40.7676317 205.618548,40.7676317 L256.464194,40.7676317 C261.813871,40.7676317 266.16629,36.4105009 266.16629,31.0555168 C266.16629,26.753607 263.357903,23.0959421 259.480161,21.8234371 C259.510161,21.4354369 259.525161,21.0450147 259.525161,20.652655 C259.525161,12.3414097 252.770323,5.57925884 244.467581,5.57925884 Z" id="Path"></path>
                            <path d="M51.9208065,11.9553471 C51.5646774,11.0940932 50.6501613,10.6043701 49.7370968,10.7855337 L46.8517742,11.3571195 C46.1714516,11.4917813 45.4679032,11.2549122 45.0082258,10.7351567 C44.5214516,10.1848842 44.006129,9.66658182 43.4632258,9.18267146 C42.9459677,8.72201204 42.7112903,8.02060843 42.8458065,7.34051819 L43.4158065,4.45691618 C43.5962903,3.54237888 43.1070968,2.62735718 42.2472581,2.27084263 L37.9872581,0.504254945 C37.1269355,0.147740402 36.135,0.448065153 35.6167742,1.22261237 L33.9832258,3.66493075 C33.5985484,4.24039172 32.9356452,4.57074895 32.2456452,4.53054419 C31.5203226,4.48840184 30.7896774,4.48985503 30.0570968,4.53441934 C29.3641935,4.57656169 28.7003226,4.24668886 28.3141935,3.6692903 L26.6777419,1.22309677 C26.1595161,0.448549547 25.1675806,0.147740402 24.3072581,0.504739339 L20.0472581,2.27132703 C19.1869355,2.62784157 18.6977419,3.54286327 18.8787097,4.45740058 L19.4496774,7.34584653 C19.5841935,8.02690556 19.3475806,8.73121554 18.8283871,9.19139056 C18.2787097,9.67869169 17.7609677,10.1945721 17.2780645,10.738063 C16.8174194,11.255881 16.1172581,11.4908125 15.4379032,11.3561507 L12.5574194,10.7855337 C11.643871,10.6048545 10.7298387,11.0945776 10.3737097,11.9553471 L8.60903226,16.2199585 C8.25290323,17.0812124 8.55290323,18.0742217 9.3266129,18.5930084 L11.7662903,20.2283252 C12.3406452,20.613419 12.671129,21.2770398 12.6309677,21.9677867 C12.588871,22.6938945 12.5903226,23.4253306 12.6348387,24.1591886 C12.6769355,24.8533263 12.3474194,25.5174315 11.7706452,25.9039786 L9.32709677,27.5422016 C8.5533871,28.0609884 8.25290323,29.0539977 8.60951613,29.9152516 L10.3741935,34.179863 C10.7303226,35.0411169 11.6448387,35.53084 12.5579032,35.3496764 L15.4432258,34.7780905 C16.1235484,34.6434288 16.8270968,34.8802978 17.2867742,35.4000534 C17.7735484,35.9503259 18.288871,36.4686283 18.8317742,36.9525386 C19.3490323,37.413198 19.5837097,38.1146016 19.4491935,38.7946919 L18.8791935,41.6778095 C18.6982258,42.5923468 19.1874194,43.5073685 20.0477419,43.863883 L24.3077419,45.6299863 C25.1680645,45.9869853 26.1604839,45.6861761 26.6782258,44.9116289 L28.3117742,42.4693105 C28.6964516,41.894334 29.3593548,41.5634923 30.0493548,41.6036971 C30.7746774,41.6458394 31.5053226,41.6443863 32.2383871,41.5998219 C32.9312903,41.5576796 33.5951613,41.8875524 33.9812903,42.464951 L35.6177419,44.9116289 C36.1359677,45.6861761 37.1279032,45.9869853 37.9882258,45.6299863 L42.2482258,43.8633987 C43.1085484,43.5068841 43.5977419,42.591378 43.4167742,41.6773251 L42.8458065,38.7888792 C42.7112903,38.1078201 42.9479032,37.4035101 43.4670968,36.9433351 C44.0167742,36.456034 44.5345161,35.9396692 45.0174194,35.3966627 C45.4780645,34.8788447 46.1782258,34.6439132 46.8575806,34.7785749 L49.7380645,35.349192 C50.6516129,35.5303556 51.5656452,35.0406325 51.9217742,34.1793786 L53.6864516,29.9147672 C54.0425806,29.0535133 53.7420968,28.0600196 52.968871,27.5417172 L50.5291935,25.9064005 C49.9543548,25.5208223 49.6243548,24.8576859 49.6645161,24.1664546 C49.7066129,23.4403468 49.7051613,22.7089107 49.6606452,21.9755371 C49.6185484,21.2818838 49.9480645,20.6172941 50.5248387,20.2307471 L52.9683871,18.5925241 C53.7420968,18.0737373 54.0425806,17.080728 53.6859677,16.2194741 L51.9208065,11.9553471 Z M34.8841935,32.1013251 C29.9003226,34.1677531 24.1872581,31.7985784 22.1225806,26.8097968 C20.0579032,21.8210151 22.425,16.1012818 27.4083871,14.0343694 C32.3917742,11.9674569 38.1053226,14.3371161 40.17,19.3258977 C42.2346774,24.3146793 39.8675806,30.0348971 34.8841935,32.1013251 Z" id="Shape"></path>
                            <path d="M49.9524194,165.723557 C14.535,165.723557 0.0808064516,142.318087 0.0808064516,116.267337 C0.0808064516,90.2165864 14.2920968,74.1773071 32.6143548,74.1773071 C50.9366129,74.1773071 45.7316129,89.755927 67.1690323,89.755927 C88.6064516,89.755927 100.216452,52.9506443 130.915645,52.9506443 C161.614839,52.9506443 146.088387,86.1384669 173.252903,86.1384669 C200.417419,86.1384669 233.461452,62.618195 238.70371,89.4255697 C245.537903,124.374167 340.16129,166.850259 236.908065,166.850259 C196.049032,166.850259 49.9524194,165.723557 49.9524194,165.723557 Z" id="Path"></path>
                        </g>
                        <path d="M102.937258,165.690134 L266.290645,165.690134 C267.191129,165.690134 267.920806,166.420601 267.920806,167.32206 L267.920806,167.49402 C267.920806,168.395479 267.191129,169.125946 266.290645,169.125946 L11.163871,169.125946 C10.2633871,169.125946 9.53370968,168.395479 9.53370968,167.49402 C9.53370968,166.594014 10.2614516,165.864032 11.1609677,165.862094 L102.937258,165.690134 Z" id="Path" fill="#DAE7FF"></path>
                    </g>
                    <g id="plant_26_" transform="translate(243.056604, 88.188679)">
                        <path d="M26.3129032,60.0111824 C28.7424194,54.3214815 32.3666129,46.2596995 24.9595161,41.4995522 C17.5519355,36.7389205 24.3145161,33.9202274 24.555,27.0205085 C24.7954839,20.1207895 17.2340323,18.3474203 17.4604839,15.0758181 C17.6864516,11.8042159 18.0619355,6.01908928 17.3641935,3.55061359 C16.196129,-0.580304922 7.45548387,-2.45588143 6.56370968,9.17540553 C6.0033871,16.4839537 5.25,20.8967899 1.35629032,26.1103307 C-2.53741935,31.3238715 6.03967742,36.8357995 5.88096774,41.0325957 C5.72225806,45.2293919 1.49612903,44.6079134 1.95822581,53.50237 C2.42032258,62.3968265 8.26016129,69.1231322 13.8130645,68.7264129 C17.583871,68.4570894 24.0948387,65.2053474 26.3129032,60.0111824 Z" id="Path" fill="#9E95E3"></path>
                        <path d="M23.9535484,48.8870567 C23.9583871,48.7533638 23.853871,48.6409842 23.7203226,48.6361402 C23.5920968,48.6472813 23.475,48.7364099 23.4701613,48.8696185 C23.3308065,52.855703 17.936129,55.7586808 16.2241935,56.5811831 C16.4148387,54.535584 16.4840323,52.5999425 16.3504839,50.9302338 C16.0587097,47.2788661 15.1625806,43.4129115 14.2964516,39.6743528 C13.1951613,34.9219558 12.1543548,30.4112718 12.4509677,26.8282038 C13.3190323,26.606351 16.6485484,25.5561831 17.7072581,22.2836121 C17.7483871,22.1562163 17.6787097,22.019617 17.5519355,21.9784434 C17.4246774,21.9367855 17.2882258,22.0075071 17.2470968,22.1339341 C16.3354839,24.9502053 13.5,26.014905 12.5022581,26.3084482 C12.5269355,26.1103307 12.5525806,25.9131821 12.5864516,25.7213617 C13.3635484,21.3075567 12.8462903,15.6454663 12.5370968,12.2629377 C12.3943548,10.6993114 12.2816129,9.46555799 12.3643548,9.13859153 C12.3972581,9.00877374 12.318871,8.87701836 12.1896774,8.84456391 C12.0619355,8.81017189 11.9283871,8.88961263 11.8959677,9.01943042 C11.7967742,9.40839941 11.8829032,10.4144873 12.0556452,12.3070177 C12.3624194,15.6658109 12.8762903,21.2872121 12.1103226,25.6375614 C12.0604839,25.920448 12.0237097,26.2120536 11.9932258,26.5075344 C11.9598387,26.5588803 11.9453226,26.6228204 11.9583871,26.6877293 C11.9612903,26.7027455 11.9690323,26.7148554 11.9743548,26.7284184 C11.8277419,28.4141122 11.9680645,30.2877511 12.2753226,32.2907235 C12.2729032,32.2916922 12.2704839,32.2912079 12.2685484,32.2921766 C9.63435484,33.3738301 8.02209677,30.2669222 7.95483871,30.1346824 C7.89435484,30.0150369 7.74822581,29.9670818 7.62967742,30.0276311 C7.51016129,30.0881805 7.46274194,30.2339833 7.52274194,30.3531444 C7.53870968,30.3841457 8.89209677,33.0056901 11.1769355,33.0056901 C11.5446774,33.0056901 11.9380645,32.9335153 12.3527419,32.7756026 C12.7170968,34.994615 13.2629032,37.357977 13.8251613,39.7847948 C14.6656452,43.4124271 15.5298387,47.1592206 15.8409677,50.6948179 C14.8369355,50.6313622 11.2190323,50.2002509 10.2633871,46.9393054 C10.226129,46.8114252 10.0916129,46.7377972 9.96290323,46.7750956 C9.83419355,46.812394 9.76112903,46.9470557 9.79887097,47.0754203 C10.8643548,50.7088654 14.8833871,51.1351328 15.8791935,51.184541 C15.9943548,52.8537654 15.9174194,54.7777814 15.7170968,56.8141769 C15.7151613,56.8151457 15.708871,56.8175677 15.7079032,56.8180521 C15.585,56.8693979 15.5264516,57.0108412 15.5777419,57.1343619 C15.5980645,57.1828014 15.6324194,57.2196154 15.6735484,57.2452883 C15.1640323,62.0645317 14.0133871,67.4277505 13.1579032,71.4109286 C12.3914516,74.9804336 11.9970968,76.870542 12.1229032,77.4702227 C12.1470968,77.5845398 12.2472581,77.6625274 12.3595161,77.6625274 C12.3759677,77.6625274 12.3929032,77.6610742 12.4098387,77.657199 C12.5404839,77.6295885 12.6241935,77.5012239 12.5966129,77.3704374 C12.4858065,76.8439002 13.0166129,74.3730026 13.631129,71.5126515 C14.4982258,67.4771588 15.6672581,62.0301397 16.1719355,57.1425966 C17.5906452,56.5007735 23.7948387,53.4340703 23.9535484,48.8870567 Z" id="Path" fill="#7266D5"></path>
                    </g>
                    <g id="plant_25_" transform="translate(9.141509, 89.264151)">
                        <g id="Group" transform="translate(0.000000, 20.828975)">
                            <path d="M2.44209677,42.9939101 C0.710322581,38.9385571 -1.87258065,33.1926665 3.40693548,29.7999656 C8.68645161,26.4072647 3.8666129,24.3979952 3.69532258,19.4804196 C3.52403226,14.562844 8.91290323,13.2990581 8.75177419,10.9671817 C8.59064516,8.63530538 8.32306452,4.51213718 8.82048387,2.75281542 C9.65274194,-0.19133593 15.8825806,-1.52826547 16.5183871,6.76166645 C16.9180645,11.9708477 17.4546774,15.1160229 20.2301613,18.8318151 C23.0056452,22.5476073 16.8924194,26.4760488 17.0051613,29.4676708 C17.1179032,32.4592928 20.1304839,32.0160716 19.8009677,38.3553458 C19.4714516,44.6946201 15.3091935,49.488675 11.3516129,49.2062729 C8.66370968,49.0134837 4.02290323,46.6956548 2.44209677,42.9939101 Z" id="Path" fill="#8AE6B9"></path>
                            <path d="M15.7896774,21.5608951 C15.6706452,21.5013146 15.525,21.5492697 15.4645161,21.6679464 C15.4180645,21.7599814 14.3187097,23.8816304 12.5254839,23.1884615 C12.7379032,21.7837167 12.8337097,20.4681006 12.7320968,19.280849 C12.7345161,19.2726143 12.7398387,19.2658328 12.7412903,19.2571137 C12.7524194,19.2018927 12.7403226,19.1486092 12.7166129,19.1021073 C12.6948387,18.89188 12.6682258,18.6845591 12.6329032,18.4825664 C12.0885484,15.3911591 12.4543548,11.3900584 12.6725806,9.00005463 C12.8003226,7.60548212 12.8579032,6.92248551 12.7843548,6.63330184 C12.7514516,6.50299965 12.6174194,6.4240433 12.4906452,6.45843533 C12.3609677,6.49088978 12.2825806,6.62312955 12.3159677,6.75246295 C12.3720968,6.97383135 12.2879032,7.89224382 12.191129,8.95549031 C11.9704839,11.3701982 11.6012903,15.4115037 12.1567742,18.5668511 C12.1746774,18.6676052 12.1867742,18.7717501 12.2008065,18.8749262 C11.4266129,18.63176 9.5816129,17.8688383 8.96951613,15.976308 C8.92887097,15.8493965 8.79290323,15.7796437 8.66467742,15.8208172 C8.53741935,15.8619908 8.46822581,15.9985901 8.50935484,16.1259859 C9.25596774,18.434127 11.561129,19.2125493 12.2569355,19.3985569 C12.453871,21.9333947 11.7174194,25.124103 10.938871,28.4848338 C10.3209677,31.1519114 9.68177419,33.9095707 9.47322581,36.5170677 C9.38177419,37.6592706 9.42387097,39.0005597 9.54725806,40.4314618 C8.22822581,39.7833416 4.63258065,37.7716502 4.53774194,35.0517736 C4.5333871,34.918565 4.41532258,34.8260456 4.28758065,34.8182953 C4.15403226,34.8231393 4.04951613,34.9350344 4.05435484,35.0692118 C4.16709677,38.3059376 8.50258065,40.4929799 9.5966129,40.9938441 C9.95370968,44.5885376 10.788871,48.6705322 11.4067742,51.6926712 C11.8466129,53.8414463 12.2264516,55.6971626 12.15,56.0604587 C12.1224194,56.1917297 12.206129,56.3200943 12.3367742,56.3477048 C12.3537097,56.3515799 12.3701613,56.3530331 12.3870968,56.3530331 C12.498871,56.3530331 12.5995161,56.2750456 12.6237097,56.1607284 C12.7166129,55.7194448 12.4330645,54.2924178 11.8814516,51.5957922 C11.2712903,48.6138581 10.4496774,44.593866 10.0896774,41.053909 C10.1158065,41.0306581 10.1429032,41.0069228 10.1574194,40.9720463 C10.2048387,40.8591824 10.1564516,40.7342085 10.053871,40.6736592 C9.92129032,39.2490542 9.87048387,37.9155154 9.94451613,36.7704062 C10.7646774,36.7180916 13.5295161,36.3518891 14.2790323,33.7952536 C14.3167742,33.666889 14.2432258,33.5322272 14.115,33.4949288 C13.9867742,33.4581148 13.8527419,33.530774 13.8145161,33.6591387 C13.1583871,35.8980112 10.7820968,36.2385407 9.98274194,36.2869802 C10.2091935,33.7938004 10.8179032,31.1528802 11.4106452,28.5947914 C11.8045161,26.8940814 12.1877419,25.236967 12.4480645,23.6772158 C12.7180645,23.7702196 12.9779032,23.814784 13.2256452,23.814784 C14.5441935,23.814784 15.5172581,22.6415798 15.8970968,21.8878616 C15.9566129,21.7667629 15.9087097,21.6209601 15.7896774,21.5608951 Z" id="Path" fill="#44D690"></path>
                        </g>
                        <g id="Group" transform="translate(22.741935, 0.000000)">
                            <path d="M26.3090323,59.7404057 C28.7385484,54.0507048 32.3627419,45.9889229 24.9556452,41.2287756 C17.5480645,36.4681439 24.3106452,33.6494508 24.551129,26.7497318 C24.7916129,19.8500128 17.2301613,18.0766436 17.4566129,14.8050414 C17.6825806,11.5334392 18.0580645,5.74831261 17.3603226,3.27983692 C16.1922581,-0.851081592 7.4516129,-2.7266581 6.55983871,8.90462886 C5.99951613,16.213177 5.24612903,20.6260133 1.35241935,25.839554 C-2.54129032,31.0530948 6.03580645,36.5650228 5.87709677,40.761819 C5.7183871,44.9586152 1.49225806,44.3371367 1.95435484,53.2315933 C2.41645161,62.1260499 8.25629032,68.8523555 13.8091935,68.4556362 C17.58,68.1863127 24.0909677,64.9345707 26.3090323,59.7404057 Z" id="Path" fill="#45D48F"></path>
                            <path d="M23.9501613,48.61628 C23.955,48.4825871 23.8504839,48.3702075 23.7169355,48.3653635 C23.5887097,48.3765046 23.4716129,48.4656333 23.4667742,48.5988418 C23.3274194,52.5849263 17.9327419,55.4879041 16.2208065,56.3104064 C16.4114516,54.2648073 16.4806452,52.3291659 16.3470968,50.6594571 C16.0553226,47.0080894 15.1591935,43.1421349 14.2930645,39.4035761 C13.1917742,34.6511791 12.1509677,30.1404951 12.4475806,26.5574271 C13.3156452,26.3355743 16.6451613,25.2854064 17.703871,22.0128354 C17.745,21.8854396 17.6753226,21.7488403 17.5485484,21.7076668 C17.4212903,21.6660088 17.2848387,21.7367304 17.2437097,21.8631575 C16.3320968,24.6794286 13.4966129,25.7441283 12.498871,26.0376715 C12.5235484,25.839554 12.5491935,25.6424054 12.5830645,25.4505851 C13.3601613,21.03678 12.8429032,15.3746897 12.5337097,11.9921611 C12.3909677,10.4285348 12.2782258,9.19478132 12.3609677,8.86781486 C12.393871,8.73799707 12.3154839,8.60624169 12.1862903,8.57378724 C12.0585484,8.53939521 11.925,8.61883596 11.8925806,8.74865375 C11.7933871,9.13762274 11.8795161,10.1437107 12.0522581,12.036241 C12.3590323,15.3950342 12.8729032,21.0164354 12.1069355,25.3667848 C12.0570968,25.6496713 12.0203226,25.9412769 11.9898387,26.2367578 C11.9564516,26.2881036 11.9419355,26.3520437 11.955,26.4169526 C11.9579032,26.4319688 11.9656452,26.4440787 11.9709677,26.4576418 C11.8243548,28.1433355 11.9646774,30.0169745 12.2719355,32.0199468 C12.2695161,32.0209156 12.2670968,32.0204312 12.2651613,32.0214 C9.63096774,33.1030535 8.01870968,29.9961455 7.95145161,29.8639057 C7.89096774,29.7442602 7.74483871,29.6963051 7.62629032,29.7568545 C7.50677419,29.8174038 7.45935484,29.9632066 7.51935484,30.0823677 C7.53532258,30.113369 8.88870968,32.7349135 11.1735484,32.7349135 C11.5412903,32.7349135 11.9346774,32.6627386 12.3493548,32.5048259 C12.7137097,34.7238383 13.2595161,37.0872004 13.8217742,39.5140181 C14.6622581,43.1416505 15.5264516,46.8884439 15.8375806,50.4240413 C14.8335484,50.3605856 11.2156452,49.9294742 10.26,46.6685287 C10.2227419,46.5406485 10.0882258,46.4670205 9.95951613,46.5043189 C9.83080645,46.5416173 9.75774194,46.676279 9.79548387,46.8046436 C10.8609677,50.4380887 14.88,50.8643561 15.8758065,50.9137644 C15.9909677,52.5829887 15.9140323,54.5070047 15.7137097,56.5434003 C15.7117742,56.5443691 15.7054839,56.546791 15.7045161,56.5472754 C15.5816129,56.5986213 15.5230645,56.7400645 15.5743548,56.8635852 C15.5946774,56.9120247 15.6290323,56.9488387 15.6701613,56.9745116 C15.1606452,61.7937551 14.01,67.1569738 13.1545161,71.140152 C12.3880645,74.7096569 11.9937097,76.5997653 12.1195161,77.199446 C12.1437097,77.3137632 12.243871,77.3917507 12.356129,77.3917507 C12.3725806,77.3917507 12.3895161,77.3902975 12.4064516,77.3864224 C12.5370968,77.3588119 12.6208065,77.2304473 12.5932258,77.0996607 C12.4824194,76.5731236 13.0132258,74.1022259 13.6277419,71.2418749 C14.4948387,67.2063821 15.663871,61.759363 16.1685484,56.8718199 C17.5867742,56.2299969 23.7914516,53.1632936 23.9501613,48.61628 Z" id="Path" fill="#1EAF69"></path>
                        </g>
                    </g>
                    <g id="woman_12_" transform="translate(31.726415, 104.320755)">
                        <path d="M47.5945161,65.2775222 C47.456129,66.1915751 47.0946774,71.524277 47.0946774,71.524277 L42.8458065,70.9614103 L42.8458065,65.0900614 L47.5945161,65.2775222 Z" id="Path" fill="#F1B282"></path>
                        <path d="M41.5243548,70.707103 C41.5243548,70.707103 40.1970968,74.4563185 40.8730645,75.5384564 C41.5490323,76.6205943 53.7512903,75.8412031 54.6687097,75.7632155 C58.8546774,75.4076698 59.8548387,71.9016205 55.4651613,72.3133561 C51.0759677,72.7250916 50.055,69.3323907 47.5601613,69.4631773 C45.9808065,69.8821788 44.381129,71.4249761 43.3669355,71.1701844 C42.3527419,70.9153928 41.5243548,70.707103 41.5243548,70.707103 Z" id="Path" fill="#03193F"></path>
                        <polygon id="Path" fill="#F1B282" points="15.483871 73.5882831 10.74 72.9973215 13.4908065 69.4602709 16.7898387 69.4602709"></polygon>
                        <path d="M25.8498387,46.8162691 C25.8498387,46.8162691 39.7379032,41.2341039 43.2203226,42.6877726 C48.2704839,44.7958586 48.9270968,65.9314551 47.9274194,66.6483594 C46.9277419,67.3652636 44.3129032,67.3904521 42.8453226,66.3678948 C41.3777419,65.3453374 40.2817742,57.8851738 40.2817742,52.9201275 C37.533871,55.3619615 29.2916129,60.5774398 29.2916129,60.5774398 C29.2916129,60.5774398 20.4764516,54.8228301 25.8498387,46.8162691 Z" id="Path" fill="#0B224E"></path>
                        <path d="M7.80919355,59.1562256 C7.80919355,62.8899404 10.9775806,64.6710599 12.9658065,65.9905513 C14.9003226,67.2741974 16.5924194,68.1359357 15.8937097,68.9177488 C14.4779032,70.5017197 14.8112903,73.9220311 14.8112903,73.9220311 C14.8112903,73.9220311 32.8891935,76.5067615 40.3872581,75.9235502 C47.8853226,75.3393701 47.1353226,69.3343283 43.47,67.1661773 C39.8046774,64.9970576 27.0580645,55.1560937 27.0580645,55.1560937 C21.1422581,53.4878381 7.80919355,51.523133 7.80919355,59.1562256 Z" id="Path" fill="#102B5E"></path>
                        <g id="Group" transform="translate(4.838710, 0.000000)">
                            <g transform="translate(12.580645, 4.359553)" id="Path">
                                <path d="M4.03645161,0.340529516 C-2.98403226,1.61642531 1.63741935,8.22550741 1.63790323,11.2147075 C1.6383871,14.2039075 0.398225806,18.8289087 0.398225806,18.8289087 L7.63016129,19.3680401 C7.63016129,19.3680401 7.75741935,16.9286281 7.61274194,15.6759832 C7.46806452,14.4233384 8.34919355,13.752936 9.90145161,13.7214504 C11.4532258,13.6899647 11.3109677,10.6721853 11.5001613,10.1020527 C11.8098387,9.1691084 13.3727419,9.67578532 13.0224194,8.60672609 C12.6725806,7.53766685 11.4720968,7.23346694 11.0559677,4.3721471 C10.6398387,1.51082725 7.3683871,-0.264963933 4.03645161,0.340529516 Z" fill="#F1B282"></path>
                                <path d="M9.50467742,13.7451857 C8.76725806,13.8168761 8.2166129,14.0629487 7.90016129,14.470809 L7.00693548,12.9992178 C7.85806452,13.4429234 9.03435484,13.755358 9.50467742,13.7451857 Z" fill="#CD916A"></path>
                            </g>
                            <path d="M13.5517742,4.40072639 C13.5517742,4.40072639 13.1003226,0.52314634 8.83112903,0.442252415 C3.15870968,0.334716779 3.33145161,8.43089079 3.2516129,12.6470628 C3.09870968,20.7127199 -0.810967742,20.8565852 0.562741935,22.4870579 C1.53580645,23.641855 9.12193548,18.450112 9.81967742,12.7298943 C10.5174194,7.00919217 10.0480645,4.33436431 13.016129,5.73717153 C14.2064516,6.29955385 13.5517742,4.40072639 13.5517742,4.40072639 Z" id="Path" fill="#0B224E"></path>
                            <path d="M12.1287097,14.7444921 C15.0648387,20.2535137 18.5075806,13.011812 16.1598387,11.7591672 C14.3472581,10.7918308 15.0009677,8.10247114 19.7283871,9.90684162 C21.3290323,10.5176634 25.0079032,9.51254429 25.0843548,5.47075441 C25.1124194,3.97688098 22.6945161,3.12967454 18.0106452,3.08026628 C10.3296774,2.99888796 9.78725806,10.3510316 12.1287097,14.7444921 Z" id="Path" fill="#0B224E"></path>
                            <path d="M14.8185484,2.10130447 C16.0219355,2.70292276 13.1167742,7.70720502 11.4266129,7.01452051 C9.73596774,6.32183601 13.2493548,1.31658496 14.8185484,2.10130447 Z" id="Path" fill="#1B90FB"></path>
                        </g>
                        <path d="M25.9640323,42.501765 C26.0124194,41.9737747 27.3353226,41.5247408 28.421129,40.3849599 C29.3220968,39.4345774 30.0566129,38.0085192 29.7440323,35.6500011 C29.6956452,35.2847675 29.7440323,35.6500011 29.9772581,34.9897711 C30.0430645,34.8003727 30.108871,34.6027396 30.1751613,34.3959031 C31.5377419,30.2107324 32.913871,22.2458293 22.7240323,20.0500679 C17.5587097,18.9325692 12.0846774,20.6168098 12.1930645,32.8908886 C12.3909677,55.3072248 3.97596774,52.7287915 6.3716129,56.7773629 C7.58032258,58.8190869 13.5987097,60.0780288 17.1106452,58.3264574 C20.6187097,56.5748859 30.7775806,57.4506717 30.4785484,55.9500167 C30.2104839,54.6077588 25.2958065,50.57711 25.9640323,42.501765 Z" id="Path" fill="#FFCB01"></path>
                        <path d="M78.468871,25.9737314 L34.061129,29.082577 C32.9946774,29.1571738 32.07,28.3525941 31.9954839,27.284988 L31.0504839,13.7548736 C30.9759677,12.6872675 31.7796774,11.7615892 32.846129,11.6869924 L77.253871,8.5781468 C78.3203226,8.50355 79.245,9.3081297 79.3195161,10.3757357 L80.2645161,23.9058502 C80.3390323,24.9729718 79.5353226,25.8991346 78.468871,25.9737314 Z" id="Path" fill="#1B90FB"></path>
                        <path d="M36.0556452,31.1364107 C36.0556452,31.1364107 38.3869355,32.4544489 41.4909677,33.9938554 C45.3353226,32.6506288 52.1346774,27.9670158 53.3012903,26.0488126 C54.0919355,24.7486971 55.6059677,22.6527209 56.3941935,23.0877074 C57.056129,23.4529411 55.698871,24.716727 55.9272581,25.6327175 C56.1309677,26.4513446 61.3790323,22.8125712 61.3790323,25.381801 C61.3790323,27.6913952 60.6851613,29.5882851 56.9351613,29.5882851 C55.7908065,29.5882851 54.6164516,29.703571 52.4975806,31.9782888 C51.3232258,33.2391684 46.0059677,39.8753766 39.7577419,39.4583127 C33.5095161,39.0412488 29.2916129,36.1402086 29.2916129,36.1402086 C29.2916129,36.1402086 33.1398387,31.0530948 36.0556452,31.1364107 Z" id="Path" fill="#F1B282"></path>
                        <path d="M15.8937097,68.9182332 C15.8937097,68.9182332 27.3595161,68.9182332 31.541129,68.9182332 C31.541129,68.9182332 18.1795161,67.7048243 12.9658065,65.9910357 C14.9003226,67.2746818 16.5924194,68.1364201 15.8937097,68.9182332 Z" id="Path" fill="#0B224E"></path>
                        <path d="M15.4359677,68.6678011 C15.4359677,68.6678011 15.6803226,65.8229507 14.6608065,65.14722 C13.6412903,64.4714893 3.30096774,70.0003711 2.53112903,70.4329356 C-0.981290323,72.4063599 -0.463548387,75.8639696 3.20370968,73.7602432 C6.87145161,71.6565168 9.10693548,74.2116991 11.2330645,73.1063103 C12.4451613,72.1128166 13.2295161,70.1306733 14.216129,69.9504784 C15.2027419,69.7697992 15.4359677,68.6678011 15.4359677,68.6678011 Z" id="Path" fill="#03193F"></path>
                        <path d="M29.9777419,34.9897711 C29.7445161,35.6500011 29.6966129,35.2847675 29.7445161,35.6500011 C30.0566129,38.0085192 29.3225806,39.4345774 28.421129,40.3849599 C26.2804839,38.4221923 21.656129,33.1679624 21.3527419,27.4031803 C21.3527419,27.4031803 28.6940323,31.1262385 29.8369355,33.5641973 C29.9641935,33.8369115 30.078871,34.1144697 30.1751613,34.3959031 C30.1093548,34.6027396 30.0435484,34.8008571 29.9777419,34.9897711 Z" id="Path" fill="#F0B701"></path>
                        <path d="M36.3769355,29.8648745 C34.5295161,28.8762248 31.5193548,25.5959035 29.8166129,23.6399174 C28.8880645,22.5732802 27.6914516,21.7662785 26.3448387,21.336136 C16.2498387,18.1100669 20.3777419,26.5831 22.3625806,29.9288146 C24.4790323,33.4958976 30.6266129,39.8729546 31.2237097,37.1831105 C31.8217742,34.4932664 39.0653226,31.3035269 36.3769355,29.8648745 Z" id="Path" fill="#FFCB01"></path>
                    </g>
                    <g id="coffee" transform="translate(82.811321, 143.037736)">
                        <path d="M0.208548387,16.1657063 L0.208548387,17.5660916 C0.208548387,19.7647594 1.62145161,20.5417286 2.83112903,20.5417286 C3.01306452,20.5417286 3.18774194,20.5208996 3.35564516,20.4928047 C3.62129032,20.4438808 3.86612903,20.3736436 4.05483871,20.3106723 C4.29241935,20.219606 4.44629032,20.1425873 4.46758065,20.1358058 C4.72645161,20.0098631 4.82419355,19.6945221 4.6983871,19.4358553 C4.57935484,19.1980175 4.29967742,19.0856379 4.05483871,19.1767041 C4.04080645,19.1834857 4.02,19.1907516 3.99870968,19.1975331 C3.99193548,19.1975331 3.71177419,19.3375232 3.35516129,19.4218079 C3.18725806,19.4639502 3.00532258,19.4920451 2.83064516,19.4920451 C2.24322581,19.4920451 1.25709677,19.2401598 1.25709677,17.566576 L1.25709677,16.1661907 C1.25709677,14.4930912 2.24322581,14.2407215 2.83064516,14.2407215 C3.00532258,14.2407215 3.18725806,14.2688164 3.35516129,14.3109588 C3.71177419,14.3947591 3.99145161,14.5352335 3.99870968,14.5352335 C4.01951613,14.5420151 4.04080645,14.549281 4.05483871,14.5560625 C4.29967742,14.6471287 4.57935484,14.5352335 4.6983871,14.2969113 C4.82419355,14.0377601 4.72645161,13.7229035 4.46758065,13.5969609 C4.44677419,13.5901794 4.29290323,13.5131606 4.05483871,13.4220944 C3.86612903,13.3591231 3.62129032,13.2888858 3.35564516,13.239962 C3.18774194,13.2118671 3.01306452,13.1910381 2.83112903,13.1910381 C1.62145161,13.1900693 0.208548387,13.9675229 0.208548387,16.1657063 Z" id="Path" fill="#FFCB01"></path>
                        <path d="M3.35564516,13.2433527 L3.35564516,14.3143495 C3.71225806,14.3981498 3.99193548,14.5386243 3.99919355,14.5386243 C4.02,14.5454058 4.04129032,14.5526718 4.05532258,14.5594533 L4.05532258,13.4250008 C3.86612903,13.3625138 3.62129032,13.2922766 3.35564516,13.2433527 Z" id="Path" fill="#F0B701"></path>
                        <path d="M3.35564516,19.425683 L3.35564516,20.4966799 C3.62129032,20.447756 3.86612903,20.3775187 4.05483871,20.3145474 L4.05483871,19.1800949 C4.04080645,19.1868764 4.02,19.1941423 3.99870968,19.2009239 C3.99193548,19.2014083 3.71225806,19.3413984 3.35564516,19.425683 Z" id="Path" fill="#F0B701"></path>
                        <path d="M4.05532258,11.6148175 L4.05532258,21.0668125 C4.05532258,21.8370002 4.68483871,22.4671977 5.45419355,22.4671977 L12.4480645,22.4671977 C13.2174194,22.4671977 13.8469355,21.8370002 13.8469355,21.0668125 L13.8469355,11.6148175 C13.8469355,11.4186377 13.6930645,11.2646001 13.4970968,11.2646001 L4.40516129,11.2646001 C4.20870968,11.2650845 4.05532258,11.4186377 4.05532258,11.6148175 Z" id="Path" fill="#FFCB01"></path>
                        <path d="M8.0883871,0.328419647 C8.0883871,0.328419647 7.03983871,1.32385088 7.07612903,2.13811847 C7.11241935,2.95238606 8.10629032,3.33263595 8.0883871,4.61725085 C8.07048387,5.90186575 6.75096774,5.88394314 6.75096774,6.9694718 C6.75096774,8.05500046 8.99225806,8.79709323 8.99225806,9.75619485 C8.99225806,9.75619485 9.60677419,9.32169275 9.62467742,8.83342283 C9.64258065,8.34515292 8.7933871,8.00123264 8.7933871,7.27706247 C8.7933871,6.5533767 11.5591935,6.33588345 11.5591935,4.67150306 C11.5591935,3.00712267 8.14258065,2.53580657 8.0883871,0.328419647 Z" id="Path" fill="#DAE7FF"></path>
                        <path d="M10.4056452,22.4671977 L12.4475806,22.4671977 C13.2169355,22.4671977 13.8464516,21.8370002 13.8464516,21.0668125 L13.8464516,17.8601192 C13.8464516,17.8601192 13.7274194,21.3608401 10.4056452,22.4671977 Z" id="Path" fill="#F0B701"></path>
                    </g>
                    <g id="paperplane_3_" transform="translate(43.018868, 14.518868)">
                        <polygon id="Path" fill="#FFE18D" points="0.357580645 8.59946016 10.5793548 13.716122 41.246129 0.0716904244"></polygon>
                        <polygon id="Path" fill="#FFCB01" points="12.2830645 22.2434074 10.5793548 13.716122 41.246129 0.0716904244"></polygon>
                        <polygon id="Path" fill="#F0B701" points="12.2830645 22.2434074 15.6904839 15.421676 24.2090323 13.716122"></polygon>
                        <polygon id="Path" fill="#FFE18D" points="15.6904839 15.421676 24.2090323 18.8327839 41.246129 0.0716904244"></polygon>
                    </g>
                    <g id="mobile_phone" transform="translate(98.943396, -0.000000)">
                        <g id="Group">
                            <path d="M88.8275806,0.355061359 L20.0317742,0.355061359 C12.4330645,0.355061359 6.27290323,6.52140665 6.27290323,14.1288263 L6.27290323,151.868414 C6.27290323,159.475349 12.4330645,165.642179 20.0317742,165.642179 L88.8270968,165.642179 C96.4258065,165.642179 102.585968,159.475349 102.585968,151.868414 L102.585968,14.1293107 C102.586452,6.52140665 96.4262903,0.355061359 88.8275806,0.355061359 Z" id="Path" fill="#183168"></path>
                            <path d="M82.7791935,0.355061359 L13.9833871,0.355061359 C6.38467742,0.355061359 0.224516129,6.52140665 0.224516129,14.1288263 L0.224516129,151.868414 C0.224516129,159.475349 6.38467742,165.642179 13.9833871,165.642179 L82.7787097,165.642179 C90.3774194,165.642179 96.5375806,159.475349 96.5375806,151.868414 L96.5375806,14.1293107 C96.5380645,6.52140665 90.3779032,0.355061359 82.7791935,0.355061359 Z" id="Path" fill="#224380"></path>
                            <path d="M89.6583871,17.5723887 L89.6583871,148.425336 C89.6583871,154.141678 85.0490323,158.756023 79.338871,158.756023 L17.973871,158.756023 C12.2637097,158.756023 7.65435484,154.141678 7.65435484,148.425336 L7.65435484,17.5723887 C7.65435484,11.8560461 12.2637097,7.24170165 17.973871,7.24170165 L22.5832258,7.24170165 C25.4037097,7.24170165 27.7427419,9.58326592 27.7427419,12.406803 C27.7427419,15.23034 30.0817742,17.5719043 32.9022581,17.5719043 L63.8603226,17.5719043 C66.6808065,17.5719043 69.0198387,15.23034 69.0198387,12.406803 C69.0198387,9.58326592 71.358871,7.24170165 74.1793548,7.24170165 L79.338871,7.24170165 C85.0495161,7.24218605 89.6583871,11.8560461 89.6583871,17.5723887 Z" id="Path" fill="#F3F9FF"></path>
                        </g>
                        <g id="Group" transform="translate(66.774194, 32.938844)">
                            <ellipse id="Oval" fill="#2CCD7F" cx="8.56935484" cy="8.62174232" rx="8.22580645" ry="8.23471091"></ellipse>
                            <path d="M7.71241935,11.9156267 C7.70129032,11.9156267 7.68919355,11.9156267 7.67806452,11.9156267 C7.45016129,11.9059388 7.23629032,11.8013095 7.08822581,11.6278962 L4.62048387,8.74574738 C4.32387097,8.40134271 4.36403226,7.88061834 4.70951613,7.58465314 C5.05596774,7.29207871 5.57370968,7.3303459 5.86887097,7.67475057 L7.76322581,9.88601265 L12.1398387,5.5642426 C12.4620968,5.24599525 12.9846774,5.25083919 13.3030645,5.57247731 C13.6219355,5.8975062 13.6185484,6.41823056 13.2948387,6.7384155 L8.29016129,11.679242 C8.13580645,11.8303732 7.92870968,11.9156267 7.71241935,11.9156267 Z" id="Path" fill="#FFFFFF"></path>
                        </g>
                        <path d="M60.8066129,49.8088599 L16.2904839,49.8088599 C15.2216129,49.8088599 14.355,48.9413089 14.355,47.8712809 L14.355,34.3082276 C14.355,33.2381996 15.2216129,32.3706486 16.2904839,32.3706486 L60.8066129,32.3706486 C61.8754839,32.3706486 62.7420968,33.2381996 62.7420968,34.3082276 L62.7420968,47.8712809 C62.7420968,48.9417933 61.8754839,49.8088599 60.8066129,49.8088599 Z" id="Path" fill="#1B90FB"></path>
                        <g id="Group" transform="translate(66.774194, 62.971319)">
                            <ellipse id="Oval" fill="#AEC1E8" cx="8.56935484" cy="8.69149517" rx="8.22580645" ry="8.23471091"></ellipse>
                            <path d="M7.71241935,11.9853795 C7.70129032,11.9853795 7.68919355,11.9853795 7.67806452,11.9853795 C7.45016129,11.9756916 7.23629032,11.8710624 7.08822581,11.697649 L4.62048387,8.81550023 C4.32387097,8.47109555 4.36403226,7.95037119 4.70951613,7.65440599 C5.05596774,7.36183155 5.57370968,7.40009874 5.86887097,7.74450341 L7.76322581,9.95576549 L12.1398387,5.63399545 C12.4620968,5.31574809 12.9846774,5.32059204 13.3030645,5.64223016 C13.6219355,5.96725904 13.6185484,6.48798341 13.2948387,6.80816834 L8.29016129,11.7489949 C8.13580645,11.9001261 7.92870968,11.9853795 7.71241935,11.9853795 Z" id="Path" fill="#FFFFFF"></path>
                        </g>
                        <path d="M60.8066129,79.9110879 L16.2904839,79.9110879 C15.2216129,79.9110879 14.355,79.0435369 14.355,77.9735088 L14.355,64.4104556 C14.355,63.3404275 15.2216129,62.4728765 16.2904839,62.4728765 L60.8066129,62.4728765 C61.8754839,62.4728765 62.7420968,63.3404275 62.7420968,64.4104556 L62.7420968,77.9735088 C62.7420968,79.0435369 61.8754839,79.9110879 60.8066129,79.9110879 Z" id="Path" fill="#DAE7FF"></path>
                        <path d="M57.6614516,38.9603549 L19.4356452,38.9603549 C18.9406452,38.9603549 18.5385484,38.5583072 18.5385484,38.062287 C18.5385484,37.5662668 18.9401613,37.1642191 19.4356452,37.1642191 L57.6614516,37.1642191 C58.1564516,37.1642191 58.5585484,37.5662668 58.5585484,38.062287 C58.5585484,38.5583072 58.1564516,38.9603549 57.6614516,38.9603549 Z" id="Path" fill="#BADDFE"></path>
                        <path d="M57.6614516,45.0152894 L19.4356452,45.0152894 C18.9406452,45.0152894 18.5385484,44.6132417 18.5385484,44.1172215 C18.5385484,43.6212013 18.9401613,43.2191536 19.4356452,43.2191536 L57.6614516,43.2191536 C58.1564516,43.2191536 58.5585484,43.6212013 58.5585484,44.1172215 C58.5585484,44.6132417 58.1564516,45.0152894 57.6614516,45.0152894 Z" id="Path" fill="#BADDFE"></path>
                    </g>
                    <g id="man_8_" transform="translate(186.056604, 53.773585)">
                        <path d="M33.2162903,7.0067702 C32.763871,8.83487602 33.5796774,9.50721594 33.5690323,10.222667 C33.5583871,10.9386025 33.0832258,12.5211201 33.273871,13.1450206 C33.4645161,13.768921 34.4414516,13.5654752 34.9480645,14.3027241 C35.4546774,15.0404573 35.3133871,16.2446627 36.3391935,16.8671099 C37.365,17.4895572 40.0432258,16.4592495 40.1874194,17.3171127 C40.3316129,18.1749758 39.7795161,24.1945494 39.7795161,24.1945494 L48.8327419,21.6451798 C48.8327419,21.6451798 45.4320968,15.2385747 45.3241935,13.2578846 C45.2162903,11.2771944 43.9814516,4.25589236 41.3283871,4.16579493 C38.6748387,4.07521311 33.6967742,5.06580039 33.2162903,7.0067702 Z" id="Path" fill="#F1B282"></path>
                        <path d="M39.1151613,0.654901715 C35.3022581,1.55006323 33.435,1.66050524 33.1146774,0.29209004 C31.9112903,0.575945369 30.2680645,3.08220385 30.8458065,5.54680439 C32.1222581,10.9933391 38.7953226,6.96753422 39.5037097,9.99112631 C39.5095161,9.99984541 39.7422581,14.0057901 38.9317742,14.7851812 C38.1212903,15.5645724 35.7885484,14.0871684 34.9785484,14.2407215 C34.3224194,14.3647266 33.0885484,21.2348975 37.8890323,20.1072265 C42.69,18.9800399 39.7083871,9.81529101 42.6454839,9.12551287 C44.1377419,8.77529546 44.1009677,15.2632789 46.151129,14.7817905 C48.033871,14.3395381 49.5933871,11.329509 48.4374194,6.39546401 C47.1783871,1.02497931 42.4974194,-0.139505691 39.1151613,0.654901715 Z" id="Path" fill="#0B224E"></path>
                        <ellipse id="Oval" fill="#2CCD7F" cx="10.2169355" cy="34.6443976" rx="10.0858065" ry="10.0967244"></ellipse>
                        <path d="M9.16596774,38.6827967 C9.15193548,38.6827967 9.13741935,38.6827967 9.1233871,38.6827967 C8.84370968,38.6711712 8.58145161,38.5428066 8.40048387,38.3296729 L5.37483871,34.7960132 C5.01145161,34.3741053 5.06080645,33.7351886 5.48419355,33.372377 C5.90854839,33.0134404 6.54387097,33.0609111 6.90532258,33.482819 L9.22790323,36.1944608 L14.5940323,30.8956665 C14.988871,30.5052444 15.63,30.5110571 16.02,30.9053544 C16.4109677,31.3035269 16.4070968,31.9424436 16.0103226,32.3352878 L9.87435484,38.3931286 C9.68467742,38.5786518 9.43064516,38.6827967 9.16596774,38.6827967 Z" id="Path" fill="#FFFFFF"></path>
                        <path d="M15.3241935,43.9229792 C15.3241935,43.9229792 13.7254839,43.6265296 12.956129,43.5078529 C12.1867742,43.3891762 8.33806452,43.0534906 5.43677419,42.8161372 C2.53548387,42.5792681 0.976451613,43.7050016 3.345,44.4756736 C5.71306452,45.2463457 7.45016129,47.3994804 11.1208065,47.5971135 C13.2566129,47.711915 18.3440323,47.5971135 18.3440323,47.5971135 L15.3241935,43.9229792 Z" id="Path" fill="#F1B282"></path>
                        <path d="M51.0309677,82.2337607 C50.295,77.0696282 47.6298387,60.0949826 43.7458065,54.9046928 L32.7643548,63.3825699 C32.7643548,63.3825699 40.5817742,85.5552556 43.2803226,88.6297091 C45.3662903,91.0061498 56.6167742,106.549893 56.6167742,106.549893 L62.0956452,103.226461 C62.096129,103.225976 55.4569355,88.9004858 51.0309677,82.2337607 Z" id="Path" fill="#0B224E"></path>
                        <polygon id="Path" fill="#F1B282" points="34.3683871 110.934635 33.5554839 116.647586 28.781129 116.187411 28.781129 110.934635"></polygon>
                        <path d="M48.0396774,51.8471931 C48.0290323,51.5928858 48.0106452,51.3240467 47.8664516,51.1143038 C47.6641935,50.8207606 47.2790323,50.72921 46.9291935,50.6599415 C44.5383871,50.1866878 42.0580645,49.714403 39.6880645,50.2811448 C38.1058065,50.6594571 36.5046774,51.4960069 34.938871,51.055692 C34.3272581,50.8837319 33.6358065,50.5325457 33.1117742,50.8919666 C33.0851613,50.9098892 33.0604839,50.9297494 33.0362903,50.950094 C32.7880645,51.1651653 32.6772581,51.5095699 32.5853226,51.8316924 C30.3135484,59.7936891 29.3283871,71.6468289 28.9364516,82.3868295 C28.4424194,95.9121 28.5048387,110.096632 28.5048387,110.096632 L34.7090323,110.133446 C34.7090323,110.133446 38.3472581,92.9999187 38.6409677,83.6767727 C40.6393548,78.3741033 44.7648387,67.4166094 46.6330645,62.3808415 C47.8703226,59.0433616 48.1872581,55.4050726 48.0396774,51.8471931 Z" id="Path" fill="#102B5E"></path>
                        <polygon id="Path" fill="#F1B282" points="61.8309677 104.075605 64.4719355 107.759427 60.7359677 111.625382 57.8312903 107.07304"></polygon>
                        <path d="M63.5308065,104.761992 C63.6537097,106.133798 62.0941935,106.573629 61.2401613,107.167981 C60.386129,107.762333 57.3116129,109.606424 56.8151613,108.763577 C56.3187097,107.92073 56.5020968,107.07304 56.1512903,106.415716 C55.8004839,105.758392 54.6822581,105.207635 55.2232258,104.372539 C55.7641935,103.537442 57.228871,103.480768 58.1559677,103.116503 C58.833871,102.850086 60.8593548,100.745391 61.3393548,101.041356 C61.8193548,101.337321 61.7535484,102.323549 62.0801613,102.805037 C62.5659677,103.519035 63.4359677,103.696808 63.5308065,104.761992 Z" id="Path" fill="#355AA2"></path>
                        <path d="M35.1629032,112.184373 C34.5803226,113.432174 33.011129,113.027704 31.9746774,113.111989 C30.9382258,113.196274 27.3541935,113.24326 27.3479032,112.264783 C27.3416129,111.286305 27.9256452,110.645935 27.9527419,109.901421 C27.9798387,109.156906 27.2893548,108.117879 28.1762903,107.667876 C29.0632258,107.217874 30.3575806,107.906199 31.3422581,108.057814 C32.0622581,108.168741 34.8696774,107.368036 35.1362903,107.865509 C35.4029032,108.362983 34.8503226,109.182094 34.8914516,109.762884 C34.9524194,110.624622 35.6148387,111.216068 35.1629032,112.184373 Z" id="Path" fill="#355AA2"></path>
                        <path d="M63.768871,106.925299 C64.1791935,106.543596 65.1725806,106.787731 66.4267742,108.289355 C67.6809677,109.790979 68.9704839,110.813536 67.7085484,112.003209 C66.9159677,112.750631 61.8982258,115.19973 58.713871,117.624126 C57.5637097,118.499912 55.7637097,118.795877 54.3062903,118.522679 C54.0087097,118.466973 53.7667742,118.248995 53.6908065,117.968531 C53.6153226,117.688066 53.7203226,117.398398 53.9579032,117.231767 C56.6075806,115.377503 56.831129,115.55237 57.8791935,112.770006 C58.2595161,111.760043 58.5387097,110.872148 58.9219355,110.552447 C59.6675806,109.930969 60.5937097,110.329141 61.7743548,109.276067 C62.955,108.222993 63.0595161,107.586014 63.768871,106.925299 Z" id="Path" fill="#0B224E"></path>
                        <path d="M34.2091935,114.46345 C34.7516129,114.419371 35.3008065,115.258827 35.2137097,117.284081 C35.1266129,119.309336 35.478871,120.395349 33.7998387,120.542605 C32.3559677,120.669516 22.7995161,120.415209 20.1517742,120.341581 C19.9480645,120.335768 19.7574194,120.232592 19.6291935,120.058694 C19.5009677,119.884797 19.4472581,119.656647 19.4830645,119.433825 C19.6408065,118.449535 20.3651613,116.963412 23.2553226,116.681494 C25.3770968,116.305119 27.4403226,114.289068 28.3790323,114.267755 C29.3177419,114.246442 29.7179032,115.166792 31.248871,115.077179 C32.7798387,114.987566 33.2714516,114.5395 34.2091935,114.46345 Z" id="Path" fill="#0B224E"></path>
                        <path d="M52.0325806,33.6688265 C50.6114516,47.3011483 47.7696774,53.4650716 49.901129,58.5623576 C52.0325806,63.6596437 44.9279032,60.1032174 40.9016129,60.3405708 C36.8758065,60.5774398 31.6654839,64.7267653 28.35,62.118784 C26.6932258,60.8162464 27.2864516,57.5906617 28.4187097,53.904902 C29.5543548,50.2123608 31.2309677,46.0586757 31.7308065,42.9149537 C31.8575806,42.1171555 31.9558065,41.1687106 32.0530645,40.1185428 C32.7174194,32.8947637 33.3459677,20.8498036 43.2701613,19.9178281 C45.7480645,19.685803 53.4532258,20.0365048 52.0325806,33.6688265 Z" id="Path" fill="#1B90FB"></path>
                        <path d="M46.9751613,26.3394494 C46.9751613,26.3394494 46.2503226,43.0927266 43.5270968,48.3086894 C40.9470968,53.2504847 33.3256452,53.5813263 28.4187097,53.904902 C29.5543548,50.2123608 31.2309677,46.0586757 31.7308065,42.9149537 C31.8575806,42.1171555 31.9558065,41.1687106 32.0530645,40.1185428 C32.5858065,39.6976037 33.0285484,39.2190217 33.3435484,38.6677805 C34.5275806,36.5931177 36.9067742,29.4357007 39.765,26.7342312 C42.6232258,24.0327616 46.0393548,26.3394494 46.9751613,26.3394494 Z" id="Path" fill="#1277D7"></path>
                        <path d="M47.5151613,29.9351117 C47.5151613,29.9351117 44.8959677,47.0889834 37.5440323,49.6131644 C30.1916129,52.1373455 16.7032258,48.5465272 15.2825806,48.4278505 C13.8614516,48.3091738 13.6248387,42.8563419 15.2825806,43.0936954 C16.9403226,43.3305644 26.6501613,44.2673839 31.2682258,42.4949835 C35.8862903,40.722583 38.006129,28.7967841 38.9651613,27.208938 C40.6108065,24.4817955 47.5151613,18.3178722 47.5151613,29.9351117 Z" id="Path" fill="#1B90FB"></path>
                    </g>
                </g>
            </g>
        </g>
    </g>
</svg>